<svg xmlns="http://www.w3.org/2000/svg" width="540" height="540" viewBox="0 0 540 540">
  <path fill="none" stroke="#0091EA" d="M86 299.3v.4M194 299.3l-8.6 5-8.6 5-8.7 5-8.6 5-8.6 5-8.7 5-2 1.2-8.6-5-8.7-5-8.7-5-8.6-5-8.7-5-8.6-5-2-1.2M348.7 290.2v-2.8M355.5 293.8v2.8M330 297V294M339.7 296.3V299M337.7 297.4v.5M317 304.3v-2.9M333 309.5v3M326 312v3M311.8 318.5v.3M329.7 327.6v2.5M316 334V331M314 319.2v2.8M282.7 326V322.8M306.8 322.3v3M259.2 342v-3M251.4 332.8V330M242 347.5v-3M251.2 369.4v-2.9M253.3 354V357.2M238.3 353.8v2M235.4 353V350M252 353.8v2.4M233.7 343.8v.8M233.8 345v2.7M249.7 362.6v2.8M234.6 364.7v3M211.5 365.6v-3M233.2 363.8v.4M209 347.3v-3.1M213.4 376v2.4M203.6 369.7v-2.9M227.8 384.4v3M214.8 376.3V379.2M203.8 382v2.9M201.8 382.7v1.9M182.2 376.5v2.8M212.4 381.5v1.1M212.7 383.4V386.3M165.4 375.8V373M182.2 376.5v-.5l-.2-.5v-.4h-.2l-.3-.7-.5-.6-.5-.7-.7-.7-.7-.5-.7-.5-.3-.2-.8-.4h-.2l-.7-.3-.8-.4-1-.4-.8-.2h-1l-1-.2h-1.8l-1 .3-.8.3-1 .4-.5.6-.8.6-.6 1.4" stroke-linecap="round" stroke-linejoin="round"/>
  <path fill="none" stroke="#0091EA" d="M165.4 372.8l.3 1.3 1 1.6 1.6 1.4v.2l2.2 1.6 2.4 1.6.6.5 1.8 1 2 1.5.6.4 2.5 1.6 2.2 1.8 1.8 1.8-.8.2h-.7l-.8.4h-.2l-.6.2-.8.2-.8.3-.7.2-.7.3-.7.4-.8.3-.7.4-.6.5-1.5 1-1.4.8-1 1-.8.7-.6.8-.4.8-.2.7v.7M212.4 381.5v-.2h-.4v.2h-.2l-.2.3-.3.3-.3.4-.2.2-.3.3h-.3l-.3.4-.5.2-.3.2-.4.3-.4.3-.4.2-1.3.7-1.3.6-1.5.4-.8.2-.7.2-1.6.4-1.7.3-1.6.2-1.7.2h-.6l-1 .2h-1.7l-1 .2h-.8l-1.5.2h-.3l-.8-.8-.8-.8-1-1-.5-.3-.5-.5-.7-.5-.4-.3-1.3-1-1.2-.7-.4-.3-.8-.5-1.5-1-1.3-.8-1.3-.8h-.2l-.6-.5-1-.5-1-.6-1-.7-1-.7h-.2l-.8-.6-.8-.6h-.3l-.4-.5-.5-.5-.4-.6V372l.4-.2h.2l.3-.3h2.7l.7.2h.8l.7.4.7.3.8.4h.2l.6.4.7.5.6.4.5.3.6.4.4.3.3.3.3.2.2.3.2.2.2.2.3.2H181.2v.2h.2v.4l.2.2" stroke-linecap="round" stroke-linejoin="round"/>
  <path fill="none" stroke="#0091EA" d="M181.7 380.2V377.3h.2v-.2h.2v-.5M193.7 375v-.7h-.2l-.3-.2h-.3l-.4-.2h-.3l-.5-.2h-2.2l-.6.2-.6.2-.6.4-.8.5-.5.5-.2.7v.8M228 383.7l-.4-1.2-.6-1.3-.7-1.2h-.2l-.3-.6-.7-.8-1-1-.3-.3-1-1-.4-.2-.5-.3-1-1-1.6-1-.5-.3-.6-.5-.4-.4-.3-.2-1.3-.8-1.5-1-1-.6h-.2l-.8-.5-.2-.2-.6-.4-.8-.6-.8-.5-.7-.5-.5-.4-.6-.3-.4-.4-.3-.2h-.2l-.4-.4-.3-.3h-.5l-.2.2h-.3l-.4.3h-.3l-.3.3-.3.2-.3.2-.3.2v.2M213.4 376v.6l-.3.2v.2h-.4v.2h-1l-.3-.2-.3-.2h-.3l-.4-.3-.4-.2-1-.5-.8-.5-.8-.6-.8-.5-.5-.3v-.3l-.6-.3h-.2l-.5-.4v-.2l-.8-.4-.6-.4-.6-.4-.5-.3-.5-.3-.4-.3-.5-.2-.5-.2h-.4l-.3-.2H198l-.3.2h-.4l-.4.4-.4.2-.2.3-.2.4v.4l-.2.4v.7l-.3.4v.3l-.3.5-.3.3-.3.3h-.2l-.2.2h-.4v.2" stroke-linecap="round" stroke-linejoin="round"/>
  <path fill="none" stroke="#0091EA" d="M203.6 366.8v.2h.2l1 .6.7.5 1 .6.7.5.7.6.6.4.7.4.5.4.5.4.2.2h.3l.3.4.4.3.3.4.2.2.2.5.4.6.3.5v.6l.2.2v.3l.2.5v.4M186.2 377l.2.8.2.5v.3l.6.8.6 1 .8.7 1 1 1 .6.2.2.8.5.8.4 1 .4.8.5.7.2.6.2h.5l1 .2h2.8l1-.3.7-.3.3-.2.6-.3.7-.5.5-.5.3-.7V381l-.4-.8-.2-.3-.2-.4-.6-.7-.7-.8-.8-.8-.5-.2-.5-.4-.3-.2-.6-.4-.3-.2h-.2v-.2h-.3l-.2-.2-.3-.2h-.4l-.2-.2" stroke-linecap="round" stroke-linejoin="round"/>
  <path fill="none" stroke="#0091EA" d="M201.8 382.7v.4l-.2.4-.4.3h-.3v.2h-2l-.5-.2h-.6l-.2-.2h-.4l-.6-.3-.6-.3-.6-.3-.3-.2h-.3l-1-.7-.6-.5-.7-.6h-.2l-.4-.5v-.2l-.7-.7-.5-.7-.3-.6v-.7h-.2v-.6l.3-.6.4-.5.7-.5h.2v-.2h.4v-.2h.5l.3-.2h.4M197 375V373.4l.2-.2v-.5l.2-.2v-.2h1.3v.2h.3l.2.2.4.2.3.3.4.2.4.3.5.4.6.3.5.4.6.5.5.2.2.2.7.4.7.5.8.4.7.3.7.3.6.3.8.2.7.3.6.2h.6l.7.2.6-.2h.8l.3-.2h.4v-.2h.2l.5-.4.4-.3.2-.4v-.4l.2-.5v-1l-.2-.4-.2-.3-.2-.4v-.3l-.3-.3h-.2" stroke-linecap="round" stroke-linejoin="round"/>
  <path fill="none" stroke="#0091EA" d="M193.7 375v.2h-.2v.3l-.3.2v.2h-.2v.3h-.2v.3h-.2v3.2h1.9l.5.2h.4v.2h.5l.3.3.5.2.4.2.4.2.8.4.7.5.7.6.6.5v.2l.5.5" stroke-linecap="round" stroke-linejoin="round"/>
  <path fill="none" stroke="#0091EA" d="M192.5 377l.4-.2h1.1l.5.2h.5l.4.3h.5l.3.3.5.2h.2l.2.2.4.3.4.2.4.2.7.5.7.5.6.5.5.6.4.5.2.3v.2l.3.4v.5M186.6 393.5v.9l-.3.6-.2.4-.3.5-.4.4-.4.5-.7.3-.3.3-.4.2-.7.4-1.2.6-1 .5-1.2.4-1 .3-1 .2-1.2.2h-2.7l-.8-.2-.7-.2-.5-.2-.4-.2-.2-.3-.2-.2v-1.2l.4-.4.4-.4.5-.5.6-.4.6-.4 1-.4.8-.4 1-.4 1-.3 1-.2 1-.3 1.2-.2h.7l.4-.2h1.2l1-.2h1.3l1.2-.3" stroke-linecap="round" stroke-linejoin="round"/>
  <path fill="none" stroke="#0091EA" d="M169.6 399v.6l.2.2.2.3.4.6.5.3.8.4 1 .2 1 .2H177l1.4-.2h.2l1.2-.4 1.5-.4 1.4-.6 1.5-.7 1.5-.8 1-.5.7-.6.7-.5.6-.5.5-.5.5-.6.3-.5.3-.6.2-.6v-.8l.2-.2v-.6M213.8 373.7h.4l.4.2.5.2 1 .7 1.2.7.2.2 1 .6 1.4 1h.2l1 1 .4.3.8.6 1 1v.2l1 1 .5 1 .3 1v1.4l-.2.2v.3l-.2.2-.2.2-.2.2-.2.2-.2.3h-.3l-.2.3-.3.2h-.3l-.6.5-.6.2-.7.3-.7.2h-.3l-.5.2h-5l-1-.3h-.4M186.5 394.4v-2 1.1M191 392.2h1.5l1.6-.3 1.6-.2 1.5-.2 1.6-.2 1.5-.2h.3l1.2-.3 1.4-.5 1.2-.3 1.3-.5 1.2-.5 1-.6.7-.3.6-.4.7-.6.6-.5.7-.7.5-.6.5-.6.2-.2.2-.3.2-.5v-1.2l-.2-.3v-.2h-.2" stroke-linecap="round" stroke-linejoin="round"/>
  <path fill="none" stroke="#0091EA" d="M212.2 382.2v-.4h.2v-.2M212.7 388.7h.2v.4l.2.2 1 .3 1 .2h4.2l1-.2 1-.2 1-.3.8-.3.8-.4.8-.4.4-.2.3-.2.4-.3.2-.3.3-.2.3-.3.2-.3.2-.3.2-.2.2-.3v-.3l.2-.2v-1.3M224.6 349.6h-.2l-.2.2h-.2v.2h-.2l-.6-.4-.5-.5-.6-.3-.4-.4-.6-.5h-.2v-.2l-.3-.2-.5-.3-.6-.3-.5-.4h-.2l-.5-.3-.6-.4-.5-.3-.8-.4-.8-.5-.6-.3h-.2l-.7-.4-.6-.3-.7-.2h-.7l-.6-.2h-.6l-.5.2h-.5l-.5.3-.4.5" stroke-linecap="round" stroke-linejoin="round"/>
  <path fill="none" stroke="#0091EA" d="M209 344v.7l.3 1 .8 1 1 1.2 1.5 1.2 1.6 1.4 2 1.5 2 1.6 1 .7.3.2 1 .6v.2l1.7 1 .6.4.7.5 1.7 1 .6.5.7.3.6.4.6.3.6.4.7.2.4.3h.3l.5.3.6.3.2.2.5.2.6.3.8.3v.4l.2.4v.5l.2.2v.8l-.2.4v.2l-.2.2-.3.2-.3.2h-.2l-.3.2H230.8l-.3-.2h-.4l-.2-.2h-.2l-.5-.3-.3-.3-.4-.3-.5-.2-.6-.4-.7-.4-.6-.4-.5-.3-.3-.2-.5-.3-.6-.4-.5-.5-.6-.4-.5-.4-.4-.3-.3-.2h-.3v-.2H220l-.2.2h-.4l-.3.2h-.6l-.2-.2h-.2l-.5-.2h-.6l-.6-.2h-1.6l-.6.2h-.5l-.6.3-.5.4-.8.5-.5.6-.2.7" stroke-linecap="round" stroke-linejoin="round"/>
  <path fill="none" stroke="#0091EA" d="M219 352l-1-1-1-.6-.4-.3-.5-.3v-.2l-.5-.3-.2-.2-.4-.4-.4-.2-.6-.6-.5-.6-.4-.4-.2-.4v-.4l-.2-.2.2-.2h1.5l.3.3h.4l.4.2.4.2.5.3.4.2.4.2.6.2.4.3.5.3.4.3.4.3.4.3.5.3.5.3.5.4.5.4.5.4h-.3l-.2.2h-.2l-.3.2h-.2l-.4.2h-.2l-.3.2h-.8v.2h-.2M233.7 343.8h-1v.2h-.4v.2l-.3.2-.4.2-.3.2-.3.2-.2.3-.5.3-.4.4-.6.3-.4.4-.5.4-.6.5-.6-.5-.4-.4-.5-.4-.4-.4-.2-.3-.4-.3-.3-.3-.2-.4h-.2v-.2h-.3v-.3h-1.6l-.3.2h-.4l-.3.2h-.4l-.3.2h-.4l-.5.2v2.2" stroke-linecap="round" stroke-linejoin="round"/>
  <path fill="none" stroke="#0091EA" d="M220 345.2l.4.3.4.4.4.3h.2l.3.3.4.3.5.3.4.3.3.3.4.3.4.3.6.4.4.3M233.8 344.8v-.2h-.2v-.8M247 360h-.4v-.2h-.6l-.5-.3-.5-.2-.5-.2h-.5l-.5-.4h-.4v-.2l-.5-.3h-.3l-.2-.2-.6-.2-.5-.3-1-.6-1-.6-.7-.3-.2-.2-.4-.3-.3-.3-.3-.2-.3-.3-.6-.4-.5-.3-.4-.3-.8-.7-.7-.5-.2-.2-.5-.4-.3-.3-1-.7-.7-.7-.8-.7.5-.5.5-.5.4-.5.4-.4.3-.3h.2l.4-.5.3-.4.2-.2.2-.3.2-.3v-.2l.2-.2M231 359.2h-.4l-.2-.3-.4-.3h-.3v-.2h-.3v-.2l-.5-.2h-.4l-.4-.2-.3-.2-.4-.2-.4-.2-.3-.2-.7-.3-.3-.2-.3-.2-.5-.3h-.2l-.4-.4-.6-.3-.5-.4-.5-.4-.6-.3-.5-.4h-.2l-.4-.4-.2-.2-.3-.2-.6-.3" stroke-linecap="round" stroke-linejoin="round"/>
  <path fill="none" stroke="#0091EA" d="M220.4 353h.3l.4.2h.9v.2H224.2l.4-.2.4-.2M247.5 361v.6l-.2.2-.2.2v.2h-.2l-.2.2-.5.2h-.2l-.8.4H242l-1.2-.2-1.2-.2-1.3-.4-1-.3-.3-.2-.8-.3-.5-.2-1.4-.5-1.3-.6-.4-.6-.5-.7-.3-.7-.5-.6-.6-.7-.5-.7-.5-.7-.3-.4-.3-.2h-.2l-.5-.7-.6-.6-.7-.7-.7-.7h.2l.2-.2h.2v-.2h.2l.2-.2.2-.2" stroke-linecap="round" stroke-linejoin="round"/>
  <path fill="none" stroke="#0091EA" d="M227.7 353.7v-2.4l.7.5.7.5.8.5.4.3.3.3.7.4.7.5.6.5.8.5.7.4.8.5.8.6h.3l.3.4 1 .5 1 .6 1 .6 1 .5 1 .5 1 .4 1 .2.8.3 1 .3.8.2H247.5M225 356v-3l.6.6.5.5.3.2.4.4.2.2.2.3.6.6.5.6.5.5.5.5.4.5.5.5.4.5.4.5M266.4 361.5l-.3-1.3-.5-1.2-.8-1.2-.5-.6-.7-.8-1-1-.3-.3-1.2-1-.2-.2-.5-.3-1-1-1.6-1-.7-.5-.4-.3-.5-.3-.2-.2-1.3-.8-1.5-1-1-.6h-.3v-.2l-.7-.4h-.2l-.6-.5-.8-.5-.7-.5-.7-.4-.6-.4-.5-.5-.6-.4h-.2l-.2-.2-.4-.4-.4-.3h-.3l-.3.2h-.2l-.3.2-.4.2h-.3l-.3.3h-.3l-.4.2h-.2l-.2.2v.2" stroke-linecap="round" stroke-linejoin="round"/>
  <path fill="none" stroke="#0091EA" d="M242 344.6v.2h.2l1 .6.8.5 1 .4.7.5.7.4.7.4.7.4.6.4.5.4h.2l.3.3.3.3.3.3.3.4.4.5.4.4.3.5.3.4v.4l.2.5V354.5l-.2.2-.2.2h-.3l-.3.2h-.4l-.3-.2h-.2l-.3-.2h-.4v-.2h-.2l-.4-.3-.4-.2-.5-.3-.5-.3-.6-.4-.5-.3-.7-.4-.5-.3-.6-.3-.3-.3h-.4l-.4-.3-.7-.4-.6-.4-.6-.4-.6-.3-.5-.2-.5-.2h-.3l-.2-.2h-.5l-.4-.2h-2v.2l-.5.3-.4.2-.2.4v.4M211.5 362.3v.8l.2.8.4 1h.2l.5.8.7.8.8.8 1 .8.3.3h.2l.5.5 1 .7 1 .4.7.3.7.3.4.2h.5l1 .4h.7l.8.2h2.2l.8-.3.6-.3.3-.2.2-.3v-.3l.2-.4V368.3l-.3-.5v-.5l-.4-.5-.3-.5-.4-.5" stroke-linecap="round" stroke-linejoin="round"/>
  <path fill="none" stroke="#0091EA" d="M235.4 350v.9l.4.4.3.5.4.4.4.6.2.3.2.2.4.6M225.3 369l-.3.5-.4.4h-2.1l-.3-.2h-.3l-.4-.3-.4-.2-.4-.2-.7-.4-.7-.5-.8-.5-.5-.5-.2-.2-.4-.4-.3-.3-.5-.6-.5-.6-.5-.8-.2-.6v-.6l.2-.5.4-.4.2-.2H216.8l.2-.2h1.9M238.3 353.8v-.4l-.2-.2v-.2l-.2-.3-.2-.4v-.4l-.3-.5v-.3l-.2-.5v-.5l.2-.2h.4v.2l.4.2.4.3.4.3.5.3.5.4.6.4.6.5.6.4.4.2.2.2.7.4.6.4.7.4.7.4.7.4.6.3.8.3.8.2.7.2.6.2h2l.6-.2.2-.2h.3l.6-.4.3-.4v-.4l.2-.3v-1.5l-.2-.3-.2-.5v-.5l-.3-.3-.2-.3" stroke-linecap="round" stroke-linejoin="round"/>
  <path fill="none" stroke="#0091EA" d="M218.8 361.6l.7.5.8.7 1 .7.7.8.4.3.5.5.7.8.7.8.5.8v.5l.2.2v.7M237.6 355v-1H238.3v-.2M226 366l.8.4.6.2h.2l.8.3h.8l.7.2H232.6l.5-.3.4-.3.3-.2v-.2l.3-.2.2-.2V363l-.3-.3M252.3 351.2l.8.5h.3l1 1 1.3.7.2.2 1 .7 1.4 1 .3.2 1 .8.4.4.6.6 1 1 .2.2.7 1 .7 1 .3 1v1.4l-.2.2v.3l-.3.2v.3l-.3.2-.2.2-.2.2-.3.3h-.2l-.3.2-.3.2-.6.3-.7.3-.8.3-.7.2h-.8l-.8.3h-4.3l-1-.3h-.4M234.2 362.7l1.5.5 1.4.5 1.5.4 1.4.5 1.2.3h1l.3.2h3.4l1-.2 1-.3.8-.4h.3l.2-.2.2-.2.2-.4v-1.5l-.2-.2-.2-.4M249.4 360.7v-.2H248.7l-.2-.2-.2-.2h-.2v-.2h-.2l-.2-.2h-.2l-.2-.2h-.8" stroke-linecap="round" stroke-linejoin="round"/>
  <path fill="none" stroke="#0091EA" d="M246.6 359.3v.2l.2.2v.2h.2M249.2 361h.2v-.2M251.2 366.4v.2h.2v.4h.2v.2l1 .3 1 .2 1.2.2h2l1-.2 1-.2 1-.2 1-.3 1-.2.7-.4.8-.4.4-.2.3-.3.4-.2.3-.3.3-.3.3-.2.2-.3.2-.3.2-.4v-.3l.2-.3V362l.2-.5M271 317v-.2h-.3l-.3-.2h-.4l-.4-.2-.6-.2-.5-.2-.6-.2-.7-.2h-.6l-.5-.3-.5-.2H264.6l-1.5 1-1.5 1-.6.7-.6.4-.6.5-1.8 1.6-1.7 2-.5.3-1 1.3-1 1-.5.8-.7 1.2-.3.5v.2l-.8 1.6v1.5" stroke-linecap="round" stroke-linejoin="round"/>
  <path fill="none" stroke="#0091EA" d="M262.4 340.3l.4-.8.5-1 .6-1 .6-1 .8-1 1-1 .5-.6.3-.5 1-.8 1-.8.8-.8 1-.6.6-.4h.2l.8-.6.6-.4.5-.3.4-.3.3-.2v-3H273l-.3-.2h-.4l-.5-.2h-1.4l-.3-.2h-.8v.2h-.2l-.3.3-.4.2-.4.2-.3.3-.5.2-.4.3-.4.2-.4.3-.5.3-.4.3-.5.3h-.5l-1 .7-.8.5-1 .4-.8.5-.2.2-.6.3-1 .4-.7.2-.7.2-.6.2h-1.3l-.4-.4v-1.6l.3-1 .5-1h.2l.7-1 .6-1v-.3l1-1.2 1-1 1.2-1 1.2-1 1-.6h.2l.2-.2.3-.2h.5l.2-.2h.4l.2-.2h.2" stroke-linecap="round" stroke-linejoin="round"/>
  <path fill="none" stroke="#0091EA" d="M265.3 319.7l-.2.2h-.2v.2h-.2v3.1h.2l.4.2H267l.4-.2h.3l.3-.2h.3l.4-.3.4-.3.5-.4.3-.3.3-.3.4-.4.2-.3.2-.3v-.4" stroke-linecap="round" stroke-linejoin="round"/>
  <path fill="none" stroke="#0091EA" d="M264.5 320.4h.3l.4.2H267.2l.4-.2h.3l.3-.2.3-.2.4-.2.4-.3.5-.4.3-.2.3-.3.4-.4.2-.2.2-.3v-.4M251.4 330.3l.3 1.2 1 1 .7.3.7.2.8.2h.8l.3.2h3l1-.2.7-.2 1-.2.7-.2-1 1.3-1 1.2-.4.7-.2.4-.3.8v.3l-.3 1M306.3 311v-1l-.6-.3h-.2l-.3-.2h-.6l-.5-.2h-2.5M296.7 319.4l-.2-.2-.6-.4-.6-.5-.5-.4-.6-.6-.3-.2v-.2l-.4-.5-.4-.4h-2.8l-.2.2h-.2V320l.2.6.2.7.3.5" stroke-linecap="round" stroke-linejoin="round"/>
  <path fill="none" stroke="#0091EA" d="M290 316.4v.6l.2.7.2.6.3.7.4.7.5.7.5.7.4.7.5.7.4.6.2.4.2.2.2.3.2.2h-.2v-.2l-.5-.2-.2-.2-.4-.3-.5-.2-.4-.2v-.2h-.2l-.4-.3-.4-.3-.3-.2-.5-.3-.5-.2-.5-.3-.5-.3-.4-.2-.6-.2-.4-.2h-3l-.4.3-.3.2-.2.2-.2.2-.2.2v.3l-.2.3v1.1M289.4 328.2l-.2-1v-.7H286.2l-.2 1.3v.4l-.5 1.6-.7 1.4-.8 1.4-1 1.3-.7.8v.2l-1 1-1.2 1-1 1-1 .8-1.2.8-1 .6-1.6 1-1.2.4h-.3l-1.4.6-1.3.4-1 .2H266l-.7-.2h-.3l-.3-.2-.6-.2-.4-.2-.8-.6-.3-.3-.4-.2-.2-.4v-.4l-.2-.2v-1.4l.2-1 .4-1 .5-1 .6-1 .6-1 .5-.4.4-.4 1-1 1-1 .8-.8 1-.8 1-.7.8-.6.8-.5.8-.5.6-.4.5-.3.4-.2.3-.2" stroke-linecap="round" stroke-linejoin="round"/>
  <path fill="none" stroke="#0091EA" d="M282.7 325.8V327H284v-4.7l.2-.2h.3v-.2h1.3l.2.2h.2v.2l.4.2.5.2.3.3.5.2.5.3.5.4.6.2.5.4.4.3h.3v.2l.6.3.4.3.4.3.6.4.5.3.6.4.5.4.5.3.5.3.4.2.3.3.3.2.3.2h.2l.2.2" stroke-linecap="round" stroke-linejoin="round"/>
  <path fill="none" stroke="#0091EA" d="M282.7 323v1h.3v.2H283.7v-.2h.2M307 318.8l-.6-.4-.8-.5-.5-.7-.3-.3-.4-.5v-.2l-.5-.5-.5-1-.3-.7v-1.4l.2-.7.5-.7.7-.6h.3v-.2h.2l.2-.2h.5l.2-.2h.3" stroke-linecap="round" stroke-linejoin="round"/>
  <path fill="none" stroke="#0091EA" d="M307 310.6l-.5.2h-.2l-.3.2-.3.2v2.9l.4.4.4.2.3.3h.3" stroke-linecap="round" stroke-linejoin="round"/>
  <path fill="none" stroke="#0091EA" d="M305.7 311.2l.6.5.7.5M259.2 338.6v1l.2 1 .3.7.5.8.4.5.2.3.8.6.8.6 1.3.6 1 .4h.3l1.4.4 1.5.2h2.7l1.5-.3 1.5-.3 1.4-.4 1.5-.6 1.4-.6 1.3-.8 1.6-1 1.3-1 1.4-1.2 1.3-1.3 1-1.2 1-1.3 1-1.5.6-1.4.5-1.5.3-1.4v-1.4M329.7 328.5v-1.7l-.2-.5-.4-.7v-.5l-1.6-1.7-1-1-.8-.6v-.2l-2-1.5-.5-.3-1-.8-.8-.7-.7-.5-2.6-1.8-.6-.4-.8-.5-.4-.3-1-.6-2.2-1.8-.7-.6-.5-.4M296.7 325.3l-.3-.4-.6-.7-.6-.7-.4-.6v-.2l-.4-.5v-.2l-.3-.3v-.5" stroke-linecap="round" stroke-linejoin="round"/>
  <path fill="none" stroke="#0091EA" d="M294 321.2l.6.3.7.4h.5l.4.3.5.3M301.5 318l.7.4 1.6 1 1 .5.7.3.8.4h.4l.3.2M307 322.3l-.2-.3v-.5h-.2l-.2-.4h-.3l-.2-.4h-.2l-.2.3V321.7l-.2.2v.2h-.2l-.2.2h-.3l-.4.2h-1.4l-.5-.2h-.5M314 319.2v-.9l-.3-.5-.2-.5-.2-.3v-.2l-.4-.5-.5-.5" stroke-linecap="round" stroke-linejoin="round"/>
  <path fill="none" stroke="#0091EA" d="M312.5 315.8h.2l1 .8h.2l1.2 1 1.7 1 1.7 1.2.7.5 1.2 1 .3.2 1.4 1.2.5.6 1 1 1 1.4.7 1.5V328.7l-.3.8-.2.5-1.5 1.2-.5.2-.5.2H319l-.7-.2-.5-.2-.4-.2-.4-.2h-.8v.2h-.2M311.7 317.8v.3l.2.8h-.2v.4M301.5 324.3h.2l1 .2h2.3l.7-.5.4-.2.3-.2.3-.3v-.3l.2-.3v-.3" stroke-linecap="round" stroke-linejoin="round"/>
  <path fill="none" stroke="#0091EA" d="M311.7 321.3h.2l.6-.2.6-.3.4-.2.2-.3.2-.3v-.8M316 331v.2h.2v.2h.2l.7.4.8.3 1 .3h.3l.6.2h1l1 .2h2l.8-.3 1-.2.7-.3.8-.4 2-1.6.2-.3M339.7 296V295.2l-.2-.3-.2-.6-.4-.5-.4-.5-.5-.5-.4-.4-.6-.3h-.2l-.2-.2-.4-.2h-.5l-.4-.2h-2.5l-.5.2h-.4l-.3.4-.8.5-.6.7-.3.7v.7M337.8 303v.4h-.4l-.3.2H336.4l-.4-.2h-.5l-.2-.2h-.3l-.5-.2-.5-.3-.5-.2-.5-.2-.4-.3-.6-.4-.3-.2h-.3l-.5-.5h-.2l-.6-.5-.5-.4-.6-.4-.5-.4-.5-.5-.5-.4-.2-.3-.2-.2-.3-.4-.3-.4v-.2H324l-.3.2h-.4v.2h-.2v3l.2.2v1l.4.7.3.8v.3" stroke-linecap="round" stroke-linejoin="round"/>
  <path fill="none" stroke="#0091EA" d="M327.3 305l-.3-.2-.4-.2h-.2l-.2-.2-.4-.2-.2-.2h-.2l-.4-.3-.4-.3-.5-.3-.5-.2-.6-.3-.7-.4-.7-.3-.3-.2-.4-.2-.5-.2h-.4l-.2-.3-.3-.2h-.3l-.3-.3h-1v.2h-.2v.2l-.2.2-.3.2-.2.2M323 297.3l.2.6v.5l.4.7.3.7.2.6.5.6.4.7.6.6.5.6.5.7.3.3v.2l.4.3v.2" stroke-linecap="round" stroke-linejoin="round"/>
  <path fill="none" stroke="#0091EA" d="M317 301.3v.2l.2.3v.3l.3.3.2.3.2.2v.3l.4.5.3.3.3.3.3.4.7.8.8.8.8.8.2.3.6.6.4.6.3.3.7.8.5.8.2.6v.2l.2.5v.5l-.2.3-.5.5h-1.1l-.4-.2h-.2l-.3-.2h-.4l-.8-.6-.8-.5-.4-.3-.4-.3-.7-.5-.7-.6-.7-.5-.5-.6-.8-.7-.8-.6-1-.6-.4-.4-.5-.4v-.2l-1-.6h-.2M330 294V295l.3.3v.4l.5.8.6.8.8.8.8.8 1 .7.4.3.7.4 1.3.6 1.3.5 1.4.3h.7l.7.3h2.8l1.4-.2 1.4-.3 1.5-.4 1.3-.3 1-.5h.2l1.2-.6 1.2-.8 1-.8.8-1 .7-.8.3-1 .2-1v-1.5l-.3-.6-.6-1-1-1-.8-.8-.3-.3-.4-.3-1-.8-.2-.2H350l-.2-.2h-.2v-.2h-.4v-.2H348.7" stroke-linecap="round" stroke-linejoin="round"/>
  <path fill="none" stroke="#0091EA" d="M333.2 293.8v-.7l.4-.2H335.2v.2l.5.2.3.3.4.4.3.3.3.4.2.5.2.5.2.5v2.2h-.3v-.2l-.5-.3-.4-.3-.3-.2-.2-.2-.3-.3-.7-.6-.5-.6-.2-.2v-.3l-.5-.5v-.3l-.2-.2V293.7M326 312.2v-1l-.3-.4-.4-.8v-.2l-.8-1-1-1.2-1-1-.5-.5-.6-.4v-.2l-1-1-1-.7-.3-.5v-.2M319 303h.4v.2h.2l.4.3.5.3.5.3.5.4.5.3.5.4.5.4.5.4h.2v.2h.3l.4.4.5.3.2.2.7.4.5.4.6.4.5.2.2.2.5.3.5.3.4.2.4.3.3.2h.2v.2h2.1l.4-.2h.4v-.2h.2v-.4l-.5-.6-.5-.5-.6-.6-.6-.6-.6-.5-.7-.7-.6-.7-.6-.5-.5-.7h-.2l-.3-.6v-.3l-.2-.4V302M348.7 287.3l.6 1.2.2.4.3.7v.2l.3.8h.2l.2 1.3v2.4l-.3 1v.4l-.3.7-.3.6-.2.5-.7 1-.7.6-1 .7-.4.3-.5.2-.7.2H344l-.6.2h-.7l-.7-.2-.7-.2-.8-.2-.7-.3-.8-.4M311.7 308.7l.6.5.8.6 1 .6 1 .6 1 .6.8.6.7.4.8.4.8.4h.4l.4.3.8.2h.7l.7.3h2.5v-.2h.6l.7-.7h.2v-1M327.2 302l.5.3.7.4.6.3.3.2 1 .4 1 .4 1 .5 1.2.3.6.2h.6l1 .2h2l.2-.2.7-.3.3-.2.2-.3.2-.3v-.7l-.2-.2-.2-.4-.2-.2-.3-.4-.3-.3-.4-.3-.3-.2h-.2M339 299.3l.3-.8.3-1v-1.4" stroke-linecap="round" stroke-linejoin="round"/>
  <path fill="none" stroke="#0091EA" d="M337 301.2l.2.4.2.3.3.4V303M307 300l-.3-.3-.3-.2-.3-.3-.2-.2h-.2v-.2h-.5l-.2-.2H303l-.2.2-.2.2-.4.2-.2.2-.2.3v.4M301.7 300.2v.3l.2.3v.3l.2.3.3.3.3.2.3.2.3.2h.3l.3.2h2.4l.3-.3h.3v-.2M165.4 375.7l.3 1.3.8 1 .3.5.2.2 1.4 1.4 2 1.7 1 .5 1.5 1 2.2 1.7h.2l.6.4 2 1.4 1.2 1 .6.3.7.5v.2l1.5 1M169 374.4h2.7l.7.2h.7l.7.3h.2l.7.2.8.4.7.4.8.4.6.4.5.4h.2l.4.4.3.2.3.4.3.2.2.3.2.2h.2v.2h.3v.2h.8V380h.2v.2h.3v-.2l.2-.2v-.4M203.6 369.7v.2h.2l1 .5.7.5 1 .5.3.3.4.2.2.2.5.3.2.2.4.2.7.3.5.4.5.4.5.4.2.2.4.4.5.5.2.5.2.2.2.3.3.5M186.2 380l.2.7.3.8.5.8.4.5.2.4.2.2.6.6 1 .8 1 .7 1 .7.8.4h.2l.7.4h.2l.7.4 1 .3h.2M190.8 378.6l.2-.2.7-.4.2-.2h.2l.2-.2M197.3 375.3l.2-.2h1.1l.3.2h.2l.4.3.3.3.4.3v.2l.4.2.4.3.7.5.5.4.6.5.7.5.7.4.7.4h.2l.6.4h.2l.5.4.7.3.7.4h.6l.7.4.6.2h.6l.7.2h.3M171.8 399.8l.5-.4.3-.2.3-.2.6-.5 1-.4.8-.3 1-.4 1-.3 1-.3 1-.3 1.2-.2 1-.2h1.3l1-.3h1.3l.7-.2M169.6 402v.5l.4.5.4.5.6.4.8.3h.4l.5.2.7.2h3.8l1.4-.2 1.4-.4 1.5-.3 1.5-.6 1.5-.6 1.5-.8 1-.5.7-.5.7-.5.6-.6.5-.5.5-.7.3-.5.3-.5.2-.6v-.5l.2-.6M214.8 377h.3l.8.6.3.2 1 .7h.2l.6.5.7.5.8.6.5.5 1.2 1 .4.3.7.6h.2l1 1 1 1.2.5 1M203.2 386.4l.3-.3.3-.6v-.6M212.4 381.7l.7-.2.6-.3.5-.3.4-.4.2-.4v-.4l.2-.5M191 395h1.5l1.4-.2h1.6l1.5-.3 1.6-.2 1.5-.2h.4l1-.2 1.5-.3h.2l1-.4 1.3-.4 1.2-.5 1-.5.7-.3.6-.4.7-.5.6-.5.7-.6.5-.6.5-.6.4-.6.2-.5v-.7M212.7 391.6h.2V392.3h.2l.2.2.8.2h.4l.7.2 1 .2h3l1-.3 1-.2 1-.3 1-.3.7-.5.8-.4h.4l.3-.3.4-.3.2-.3h.3l.3-.4.2-.3.2-.3.2-.3.2-.3v-.3h.2v-1.4M209 347v.6l.3 1 .8 1 1 1.2 1 1 .5.3.3.3 1.3 1.2 2 1.5.3.2.7.6 1 .7 2.2 1.5.7.5.7.5 1 .5 2.3 1.5h.2l.4.4h.3l.3.3.5.3.8.4.6.4.7.3.5.4.7.3.6.3.5.3h.2l.6.3h.3l.5.3M215.5 349.2h.3l.3.3h.3l.4.3h.2v.3l.6.3.4.3.5.3.4.2.4.3.2.2M231.6 350.6l.3-.3.2-.5.4-.4.3-.4.2-.3.2-.3.2-.3.2-.2M242 347.5v.2h.2l1 .6.8.5 1 .5.2.3.5.2.2.2.4.3.3.2.4.2.7.4.6.5.5.4.4.2.4.3.3.3.3.5.4.5.2.2v.3l.3.5M211.5 365.2v.8l.2.8.4.8.6.8.5.5.4.3.2.3.6.5 1 1 1 .7 1 .7 1 .4.6.4 1 .3.7.3 1 .3.7.2h.8l.8.2h.8l.7-.2.7-.2.6-.4.3-.2.2-.3v-.2l.2-.3v-.3M229.2 355.2l.6.5.7.5.7.4.7.5v.2l.6.4.8.5.7.6 1 .4.6.5.7.4 1 .5h.4l.6.5h.3l.7.5 1 .5 1 .4 1 .4.8.3M235.4 353v.7M216 364.8h.2l.2-.2h2.7l.5.4.8.6 1 .7.7.8 1 1 .7.7.5.7h.2l.2.5M238.2 353.4h.2v.2l.4.3h.2l.3.2.4.3.7.5.6.4.6.4.6.5.7.4.6.4v.2l.7.4h.2l.5.3.7.3.7.3.7.3h.8l.7.3.6.2h2l.6-.2.5-.3.6-.3.3-.4v-.4l.2-.4V357M253.3 354.7l1 .7 1.2 1 .7.4.7.4.8.7.4.2 1.2 1 .5.4.6.6 1 1 1 1.2.6 1M227.4 369.5h.2l.8.3.8.2h.7l.6.2H232.3l.4-.2.5-.2h.4l.3-.4v-.2l.3-.2.2-.3v-1M234.6 365.7l1 .4 1.5.6h.4l1 .4 1.5.4 1 .2h.2l1.3.3h3.4l1-.3 1-.3.8-.4.3-.2.3-.2.2-.2v-.3h.2v-.4M251.2 369.4l.2.2v.2l.2.2.3.2.7.2h.4l.7.2 1 .2h3.2l1-.3.8-.2 1-.3 1-.3.7-.4.8-.4.4-.3.3-.3.4-.2.3-.3.3-.3.3-.3.2-.3.2-.2.2-.3v-.3l.2-.3v-1l.2-.6M255.7 331.6l.5-1 .7-1.2.5-1 .2-.2 1-1.2 1-1 1-1 1.3-1 1-.6.2-.2h.2v-.2h.6l.2-.2h.2M251.4 333.2l.3 1.2.3.2.6.6.2.2.6.3.7.2h.8l.8.2H260M283.8 325.5v-.4h.2l.3-.2h1.5l.2.2.4.3.5.2.3.3h.2l.3.3.5.4M303.3 314.7l.4-.5.7-.6h.3v-.2h.2l.2-.2h.5M259.2 341.5v1.7l.2.2.3.8.5.8.6.7.8.6.4.3.4.3h.5l.7.5 1.4.5 1.4.3 1.5.2h2.7l1.5-.3 1.5-.3 1.4-.5 1.5-.6 1.4-.7.7-.4.6-.5.5-.3 1-.6 1.5-1 1.4-1.3 1.3-1.2 1-1.3.3-.3.8-1 .4-.6.5-1 .6-1.3.5-1.5.3-1.5V331M289.2 327h.2l.5.5.4.3.4.3.5.4.4.3.4.3h.3l.3.3.5.3.6.4.5.3.5.3.5.3.4.2.3.2.3.2.3.2.2.2h.2v.2M301.5 320.8l.8.6 1 .5.6.4M301.5 327.2h.2l1 .2h2.2l.7-.5.4-.3.3-.3.3-.2v-.3l.2-.4v-.4M314 319.7l1.2.7 1 .7.7.5v.2l1.7 1 2 1.4.2.4.6.6.8.6.5.5M311.7 324.2h.2l.6-.2.6-.3.4-.3.2-.3.2-.2v-.7M323 326l1 1 .7 1.2.3.4.2.3.2.5M316 334v.2h.4l.7.5.8.3 1 .2.8.2h1l1 .2h2l.6-.2h.4l1-.3.7-.2.8-.3 2-1.5.3-.5.7-1M317 304.2v.2l.2.3v.3l.3.2.2.3.2.2v.3l.4.4.3.3.3.3.3.3v.2l.7.6.6.7.2.2.8.7.8.8.6.8.6.7v.2l.3.3M330 297v.8l.4.8.4.8.4.5.2.2.3.2.5.6.8.7 1 .7 1 .7.3.2M334 295.6H335l.2.2.5.3.3.4.4.4.3.4.2.3.2.6v.4M348.7 290.2v.3l.6.8.5 1.3v.2l.4 1v.7M325.2 309.8l.3.2.4.3.2.2.3.2.4.3.7.5.5.3.5.4.4.3.4.2.3.2h.2v.2h1.8l.3-.2H332.7l.2-.2.2-.2v-.2M316.2 314.7l.5.3.8.5.8.4.8.3.8.3.8.2.7.2.7.2h2.5l.6-.4 1-.7v-.9M330.2 306.5l.7.3.3.2.6.2.3.2 1.2.3 1 .3h3.2l.8-.4.3-.2.2-.3.2-.2v-.2M339.2 304.6l1.2.2H344.6l.3-.2 1-.2 1.5-.3h.3l1-.4 1-.5h.2l1.2-.5 1.2-.8 1-.8.3-.5.5-.5.7-1v-.2l.3-.7.2-1M301.7 303v.4l.2.3v.3l.2.2.3.3.3.2.3.2h.3l.3.2h.3l.2.2h1.9l.3-.2.3-.2.3-.2M177.8 434.8l-.3.5-.3 2 .3 1.7 1 1M178.4 440l4.2 2.5 8.7 5 8.6 5 8.6 5 8.6 5 4 2.3M174.2 421l5.2 3M179.4 434.2V424l8.6-5 8.7-5 8.7-5 8.7-5 8.7-5 8.7-5 2-1.4 8.8-5 8.6-5 8.7-5 8.7-5 8.7-5 8.5-5 2-1.2 8.8-5 .4-.3" stroke-linecap="round" stroke-linejoin="round"/>
  <path fill="none" stroke="#0091EA" d="M296.7 350.2l-8.6 5-5.5 3.2-6 3.5-8.6 5-8.8 5-4.8 2.6-8.6 5-8.7 5-8.6 5-6 3.5-8.7 5-8.6 5-4.7 3-8.7 5-8.6 5-8.8 5v6.8M169.6 400l-4.6 2.6-8.3 4.8-1.5.8-1.5 1v6.8M153.7 409l5.2 3M159 419v-7l8.5-5 4.7-2.6M164 415l5 3" stroke-linecap="round" stroke-linejoin="round"/>
  <path fill="none" stroke="#0091EA" d="M169 425v-7l8.8-5 8.6-5 8.8-5 8.6-5 8.7-5 1-.6M221.4 381.8l-3.3 2-5.4 3M148.6 413l.2.2 2.4 1.3 2.5 1.5M169 425l5.2 2.8" stroke-linecap="round" stroke-linejoin="round"/>
  <path fill="none" stroke="#0091EA" d="M200.4 394l-8.7 5-1.7 1-8.6 5-8.7 5-8.7 5v7M169 434.7l3.2 2 5.6-2 1.6-.5 6-3.4.4-.3 7.7-4.4 7.8-4.4.4-.3 8.7-5 4-2.3 8.6-5 8.7-5 1.8-1 6-3.5.4-.2 7.6-4.5 7.8-4.5.5-.2 8.5-5 4-2.2 8.7-5 8.6-5 1.8-1 6-3.5.4-.3 2.7-1.5M169 434.7v7.5" stroke-linecap="round" stroke-linejoin="round"/>
  <path fill="none" stroke="#0091EA" d="M193.5 426l-.3 2 .3 1.8 1 1M233.8 430.6L230 432h-7.5l-4.3-1-3-1.8-4.7-2.8-8.7-5M194.4 431l4.2 2.3 8.6 5 2.2 1.2 4.4 2.5 6 1.5 6.5.4 7-.7 6.4-2.4M239.7 441l3.8-1.4 3.3-.2h4.2l4.3 1.2 3 1.7.8.6" stroke-linecap="round" stroke-linejoin="round"/>
  <path fill="none" stroke="#0091EA" d="M271 436l-7-4-4.3-2.5-6-1.5-6.5-.4-7 .6-6.4 2.4M233.8 430.6l1.3-.3M164 422l5 3M159 419l-3.5-2-1.8-1 1.8 1 3.4 2 8.5 5 1.6 1M231.7 404l-.4 2 .4 1.8 1 1M232.6 408.8l4 2.4 8.8 5 8.7 5 8.7 5 8.7 5 4 2.3M219.7 388.7l3.5-2 1.3-.7M296.7 338.4l-8.6 5-8.6 5-7 4-6 3.6-2.2 1.2" stroke-linecap="round" stroke-linejoin="round"/>
  <path fill="none" stroke="#0091EA" d="M210.5 426.4l8.6-5 4-2.3 8.8-5 5-2.8M247.6 394.8l-.3 2 .3 1.8 1 1M325.2 404.8l-7-4-4.3-2.5-6-1.5-6.6-.4-7 .6-6.5 2.3-3.8 1.3-3.3.3-4.4-.3-4.2-1-3-1.8-4.8-3-8.6-5M248.5 399.6l4.2 2.4 8.7 5 2 1.3 4.5 2.4 6 1.5 6.4.4 7-.6 6.5-2.3M294 409.7l3.6-1.3 3.3-.3 4.2.3 4.2 1 3 1.8 1 .6M285.8 372.8l-.3 2 .3 1.7 1 1M286.7 377.6l4.2 2.4 8.5 5 8.7 5 8.6 5 8.7 5 4 2.3M390.8 296l-2.2 1.2-2.2 1.2-.7.5-8.7 5-8.7 5-8.6 5-8.7 5-8.7 5-5.7 3.2-6 3.4M260.3 353.5l6.8-4 2-1M266.8 361.7l4.6-2.8 6-3.5 8.6-5 8.7-5 2-1.2M380.5 290l-2.2 1.3-2 1.2-1 .5-8.6 5-8.6 5-8.6 5-8.6 5-8.7 5-5.6 3.3-.8.4" stroke-linecap="round" stroke-linejoin="round"/>
  <path fill="none" stroke="#0091EA" d="M264.6 395l8.7-5 4-2.2 8.6-5 5-2.8M301.8 363.6l-.3 2M342 368l-3.7 1.4-3.3.2h-4.2l-4.3-1.2-3-1.7-4.7-2.8-7-4.2M301.5 365.6l.3 1.7 1 1M302.7 368.4l4 2.4 8.8 5 2.2 1.2 4.4 2.5 6 1.5 6.6.4 7-.6 6.4-2.4" stroke-linecap="round" stroke-linejoin="round"/>
  <path fill="none" stroke="#0091EA" d="M348 378.4l3.7-1.3h7.6l4.2 1 3 1.8 1 .6M379.3 373.5l-7-4-4.3-2.5-6-1.5-6.5-.4-7 .7-6.4 2.4M340 341.5l-.4 2 .3 1.8 1 1M341 346.3l4 2.4 8.7 5 8.6 5 8.7 5 8.6 5 4 2.3M311.7 347.5l2-1.2 8.6-5 8.7-5 8.7-5 2-1.2 8.7-5 8.7-5 8.7-5 8.7-5 8.7-5 5-2.7.8-.5.8-.4 4.3-2.5" stroke-linecap="round" stroke-linejoin="round"/>
  <path fill="none" stroke="#0091EA" d="M396 309.2v-10.4l-5.2-3M370.3 284l-2.2 1.4-2 1.2-.8.4-8.7 5-1 .7M321.2 318.3l1.8-1M375.4 293v-6l-5-3M329 325.6l2.5-1.4 8.7-5 8.6-5 8.7-5 8.7-5 8.6-5 5-2.8.7-.5.8-.5 4.4-2.5" stroke-linecap="round" stroke-linejoin="round"/>
  <path fill="none" stroke="#0091EA" d="M385.7 299v-6l-5.2-3M311.7 357.8l8.7-5 2.2-1.3 8.7-5 8.7-5 1.8-1 6-3.5.4-.2 7.7-4.5 7.7-4.5.4-.2 8.8-5 8.7-5 4-2.4 8.7-5 1.7-1M318.8 364l8.6-5 4-2.4 8.7-5 5-3M373 332.6l8.6-5 4-2.3v-10" stroke-linecap="round" stroke-linejoin="round"/>
  <path fill="none" stroke="#0091EA" d="M356 332.3l-.4 2 .3 1.8.8 1M433.5 342.2l-7-4-4.4-2.4-6-1.5-6.4-.4-7 .5-6.4 2.3-3.7 1.3-3.3.4-4.3-.2-4.3-1-3-1.8-4.8-2.8-8.8-5M356.8 337l4.2 2.5 8.6 5 2.2 1.2 4.4 2.5 6 1.5 6.5.4 7-.5 6.4-2.3 4-1.3 3.2-.4 4.2.2 4.3 1 3 1.8.8.5M87.5 387.6l8.7 5 8.7 5 8.5 5 8.7 5 7.8 4.5M128 394.3l6.2-3.5 8.6-5 8.7-5 .6-.4 8.8-5 4.5-2.6" stroke-linecap="round" stroke-linejoin="round"/>
  <path fill="none" stroke="#0091EA" d="M296.7 291l-8.6 5-2.6 1.6-2.6 1.5-8.6 5-3.3 2-8.7 5-1 .5-7.8 4.5-5.6 3.2-1.2.7-4 2.3-.8.3-5.5 3.2-4.7 2.8-.5.2-2.6 1.5-8.7 5-3.2 2-8.7 5-1 .5-7.7 4.5-5.5 3.2-5.3 3-8.6 5-3 1.6-2.4 1.6-8.7 5-3.4 2-8.6 5-1 .4-7.8 4.5-5.5 3.2-5.3 3-8.7 5-2.7 1.7v10.3l5.6 8.3 1.4 2v.3l3.4 2v7.3" stroke-linecap="round" stroke-linejoin="round"/>
  <path fill="none" stroke="#0091EA" d="M123 391.4l5 3v6.8M148.6 406v7h.3l4.7-3" stroke-linecap="round" stroke-linejoin="round"/>
  <path fill="none" stroke="#0091EA" d="M143.5 403.2l5 3 1.6-1 8.8-5 3.2-1.8 8.7-5 8.6-5 .5-.3M138.4 400.2l1.5-1 8.6-5 3.2-1.7 8.6-5 8.7-5 1.5-.8M212 351.7l-8.6 5-2.7 1.6h-.2l-8.7 5-1.5 1-3 1.7-2.5 1.5-6.5 3.8M133.2 397.3l5.2 3v6.8" stroke-linecap="round" stroke-linejoin="round"/>
  <path fill="none" stroke="#0091EA" d="M143.5 404.2l-1.7 1-3.4 2 5 3v-7l1.6-1 8.6-5 3.3-1.8 8.6-5 8.6-5 1-.5M133.2 398.2l-1.7 1-3.4 2 5.2 3v-7l3-1.6 8.6-5 1.5-1h.3l8.6-5 8.7-5 2.5-1.5M142.7 374.6l-1 1-.3.3-1 .7-4 3.8-1.2 1.3-.8 3M153 374l-.5-2.2-.4-1.8-2.7-3.6-1-1.2-4.3-2.6-8-4.5-7-4M124.2 365l8.6 5 5.2 3 2.7 1.4" stroke-linecap="round" stroke-linejoin="round"/>
  <path fill="none" stroke="#0091EA" d="M140 373.5l.7 1 .6.8" stroke-linecap="round" stroke-linejoin="round"/>
  <path fill="none" stroke="#0091EA" d="M141.2 374v1.3l.2.6M145.2 378.5v-.2.2M141.7 356.4l8.6 5 8.7 5 3.6 2M171.6 369.2l8-4.7 2.6-1.4 6-3.4 8.4-5 5-2.7 4.7-2.8 2.6-1.6M259.2 342.3l-.8.5-1.5.8-2.7 1.5-3.5 2M259.7 336l-6.5 3.8-1.4 1-2.6 1.3-3 2M182 375l8-4.6 2.5-1.4 1.5-1 8.7-5 3.2-1.8 8.6-5 1.7-1M251.5 329l-7 4-3 1.8-2.5 1.4-8.7 5-3.3 2-2.4 1.3M194.6 345.5l-4 3.7-1.3 1.3-.8 3M207 342.8l-.3-2.3-.5-1.8-2.7-3.6-1-1-4.4-2.6-7.8-4.6-7-4M178.3 333.7l8.7 5 5.2 3 2.6 1.5" stroke-linecap="round" stroke-linejoin="round"/>
  <path fill="none" stroke="#0091EA" d="M194 342.2l.8 1 .7 1M195.4 342.7v2M196.8 343.3l-1 1-.3.3-1 1M195.8 325l8.7 5 8.6 5 3.8 2.2M215 344.2l7-4 8.6-5 1.3-.8 1.8-1 1.2-.8 1.4-.8 5.8-3.4h.2l3-1.8 1.4-.8 4-2.3 5-3 4.6-2.6.5-.3M307 308.8l-1 .6-.5.3M233.8 345l8.7-5 1.6-.8 2.6-1.5 1.6-1 3.8-2M296.7 303l-1 .5-2.6 1.5-8.6 5-3.2 2-8.7 5-1.6.8M248.7 314.2l-2 1.8M261.2 311.5l-.4-2.2-.4-1.8-2.8-3.6-1-1.3-4.3-2.6-5.5-3M248.3 311l.7 1 .6.8M249.5 311.5v1.9M251 312l-1 1v.2l-.4.2-1 .8M250 293.8l8.6 5 8.7 5 3.6 2M265.4 315l8.7-5 2-1 8.7-5 3.3-2 2.5-1.5 6-3.4h.2M344.7 275.2v-5.9l-5.2-3M339.5 266.3l-2.2 1.3-2 1.2-8.8 5-8.6 5-2.6 1.5-3.7 2M365.2 281l-4.4 2.6-.8.5-.8.6-7 4" stroke-linecap="round" stroke-linejoin="round"/>
  <path fill="none" stroke="#0091EA" d="M365.2 287V281l-5.2-2.8M360 278.2l-2.2 1.2-2 1.3-1 .4-8.6 5-.2.3-8.7 5-.5.3" stroke-linecap="round" stroke-linejoin="round"/>
  <path fill="none" stroke="#0091EA" d="M355 281V275.3l-5.2-3M349.8 272.2l-2.2 1.3-2 1.2-1 .5-4.3 2.5-8.7 5-8.7 5-8.7 5-2.6 1.5M307 284.2l-1-1-1.8-.5 1.7.6 1 1M305 280.8l-1 1-.2.3-1 1-1.3 1.3M307 269.2l-.6-.3-5-3M315.4 280.3l-.5-2.3-.5-1.8-2.7-3.6M302.4 279.7l.7 1 .7.8" stroke-linecap="round" stroke-linejoin="round"/>
  <path fill="none" stroke="#0091EA" d="M303.6 280.2v1.3l.2.6M250.2 177.5l-8.7-5-2-1.2-1 .5M216.3 184.6l-2.5 1.5 5.4 8.5 5.4 8.5 7.2 4 4.7 3 3 1.6 2.5-1.6 4.8-2.7 4-2.3M257.3 198.2l5.3-8.4 2.4-3.7-4.2-2.4M265 186l-6.6 4M239.4 201v10.6" stroke-linecap="round" stroke-linejoin="round"/>
  <path fill="none" stroke="#0091EA" d="M242 199.4l-2.6 1.5-8.7-5-8.6-5-8.2-5M301.5 371.3l-.2.6h-.3l-.2.3-.8.3h-1.8l-.8-.3-.5-.4-.3-.7M301.5 371.3V247.6M281.3 222l-2.6 1.6 5.4 8.4 5.6 8.5 7 4 3.4 2 .6.4.8.4h.2l.4.3.8.5 1.6 1 .5-.4M320.6 238.2l.4-.5 1-1.6.4-.5 1-1.8.7-1h.2l5.4-8.5.4-.6-3-1.8M330 223.6l-5 2.8M304.4 238.4v10.8" stroke-linecap="round" stroke-linejoin="round"/>
  <path fill="none" stroke="#0091EA" d="M307 237l-2.6 1.4-8.7-5-8.7-5-8.3-4.8M311.7 365.4l-.2.5-.5.4-.7.3h-2l-.6-.3-.5-.5-.2-.6M311.7 365.4V245.8M307 248.6l-.4.2-.2.2h-.2l-.5.4v2.5l1.3.7M464.5 321.2l3-1.7V317l-8.6-5-8.8-5-8.6-5-8.7-5-8.7-5-8.7-5-8.7-5-8.7-5-8.7-5-8.6-5-8.7-5-8.7-5-8.6-5-8.7-5-6.3-3.7-8.8-5-1.8-1" stroke-linecap="round" stroke-linejoin="round"/>
  <path fill="none" stroke="#0091EA" d="M467.6 317l-.8.5-4.4 2.5M445.2 330v2.3M396 304l8.6 5 8.6 5 8.7 5 8.5 5 8.7 5 6 3.3 8.7-5 5.7-3.3 4.7-2.7" stroke-linecap="round" stroke-linejoin="round"/>
  <path fill="none" stroke="#0091EA" d="M462.4 320l-4.8 2.8-8.7 5-3.8 2-8.6-5-8.7-5-8.8-5-8.6-5-8.7-5-6-3.4M152.5 124.4v34.2M141.4 152.3l1 .5.6.4 7 4 .7.5 1.8 1h.2l.5-.4 2.6-1.4 1-.7 5-3h.2" stroke-linecap="round" stroke-linejoin="round"/>
  <path fill="none" stroke="#0091EA" d="M189 125.7v-22.3l-5.5-8.4-2.8-4.4-5.8-8-5.8-8.3-5.8-8.2L159 60l-8.7-5-8.6-5-8.7-5-1-.6-4.3 2.5-8.7 5-8.7 5-8.6 5-2 1-4.2 2.5v20l.2 6.4V126l8.3 4.7 1.5 1 8.7 5 1.8 1 1 .5 6.5 3.8 2.7 1.5 2.6 1.5 8.2 4.8.7.4h.3l.4.3.3.2.6.4.5.4h.2l.2.2h.2l.5.4.4.3" stroke-linecap="round" stroke-linejoin="round"/>
  <path fill="none" stroke="#0091EA" d="M98.3 69l2.5 1.4 8.6 5 8.7 5 3 1.6.3 10 .3 9.6v3" stroke-linecap="round" stroke-linejoin="round"/>
  <path fill="none" stroke="#0091EA" d="M95.5 65.2L100 68l8.7 5 8.7 5 5 3 1 1.2 2 3 5.8 8 5.8 8.2 5.7 8.2 1 1.4.5.7 3.3 5 2.2 3.4 2.8 4.4 4.3-2.4 3.8-2.2 5.5-3.2 8.8-5 8.7-5 1.2-.8 4.3-2.4" stroke-linecap="round" stroke-linejoin="round"/>
  <path fill="none" stroke="#0091EA" d="M124.4 85.7l1.7 2.5 6 8.2v.4l6 8.2 3.7 5.4.3.4 3.8 5.8.8 1.2 2 3-8.3-4.8-7.8-4.5-7.3-4.2M154.7 62.3l5.8 8.2 5.7 8L172 87l4.4 6.3-.7.5-8.7 5-8.7 5-8.6 5-1.2.7-5.8-8.2-5.7-8-5-7-5-7.4-.2-.2" stroke-linecap="round" stroke-linejoin="round"/>
  <path fill="none" stroke="#0091EA" d="M126.8 78.4l8.7-5 8.6-5 8.8-5 2-1-.7.5" stroke-linecap="round" stroke-linejoin="round"/>
  <path fill="none" stroke="#0091EA" d="M127 78.6l8.6-5 8.7-5 8.6-5 1-.7 6 8 5.6 8.3 5.8 8 4.3 6.2M156.8 124.8l6.7-4 4.8-2.7 8.7-5 7.7-4.4 1.6 6v9.5M124.4 85.7l.3 10 .4 10 .2 1.6 1.6-1" stroke-linecap="round" stroke-linejoin="round"/>
  <path fill="none" stroke="#0091EA" d="M146.6 117.8l-2.5-1.4-8.6-5-.2-.2-8.4-4.8-.4-10-.3-8.2M98.3 69v22M121.7 104.6l-8.6-5-8.6-5-6-3.6 2.4-1.4" stroke-linecap="round" stroke-linejoin="round"/>
  <path fill="none" stroke="#0091EA" d="M121.6 101.6l-8.6-5-8.7-5-3.5-2V70.4M156.8 152.7l5-1h.2l.4-.2h.2M189 136.6v-6.1M156.8 152.7v-28l6.2 3.2M186.3 114.5l-1.6 1-6.7 3.8M173.8 121.7l-.8.5-3.7 2-6.3 3.8V150.7M180.7 141l5-2.8.6-.3V129M316.4 242l.2.2h.2M316.8 242.3h.3l.3.2h.2l.4.2h.4l.2.2M331.5 209.4h-.2M316.4 241l-.3.7.2.2h.2M294.8 227.7v.5M330 210.3v-.3M305.7 196v.2M330.2 209.8l.2-.2M330.7 211.8l.2-.2v-.2l.3-.2M329.7 211.5v-.7M305.4 196.5v.7M329.8 210.5v.2M316.6 243h.2l.2.3.2.2h.2l.2.2h.8v-.2" stroke-linecap="round" stroke-linejoin="round"/>
  <path fill="none" stroke="#0091EA" d="M318.4 242.8V243.4l-.2.2M344.4 228v-.2M316.3 242v.3M316.4 242.3v.3l.2.2M319 243.7l.3-.2h.2l.2-.3v-.2l.3-.2M318.4 243.5l.3.2M294 229.3v.2h.2l.2.2M318.2 243.2v-.3M294.8 227.2l-.3.2v.2l-.3.3M319.6 241h.4v.2M342.3 229.7h.2v.2h.3l.2-.2h.2l.2-.2M342.5 229.8h-.2M318.6 213.5l-.3.3-.2.3v.8M342.3 228.4l.2-.3.3-.4h.2M343.6 229.4l.2-.2v-.3M329 207.4v-.2h.4l.2-.2h1l.2.2.2.2v1.3l-.2.2-.2.2-.3.2h-.2l-.2.2h-1l-.2-.2v-.2l-.2-.2V208h.2M344 229.2h.3l.3-.3.2-.3v-.2l.2-.3V227.3l-1.6-2.2M330.2 210.6V209.4M307.7 194.2h-.3v-.2h-.3v.2h-.3l-.2.2-.2.2v.2h-.2v.7l-.2.3M330.5 208.8l.2-.2M331.2 208.2H331.8M332 208.3l-.7-.5M332 209.4v-.2l.2-.3v-.5M305.3 199.8l-.3.7-1.4 3.5-1 2.8-1.5 4-2.3 6.3-3.6 9.4v.2l-.2.6-.7 1.8.2.2.2.2h.2l.2.2h.2l.3.2h.3l.2.2h.5M272.8 215v.5M307.7 199v-1.4l.3-.2M283.7 183.2v.2h-.2v.4l-.2.2v.5" stroke-linecap="round" stroke-linejoin="round"/>
  <path fill="none" stroke="#0091EA" d="M294.3 229.3v.3l.2.3.2.4.2.2v.2h.3l.2.2h.4l.4-.2M296.3 230.5v.4h-.2M272.3 215v.2l-.3.2V216.5l.2.3h.2M296.5 231v-.2M296.2 230.4v-.2M272.7 214.5l-.2.2M296.5 200.8l-.2.3-.2.3v.3M308.6 196.2l-.2.2-.3.2h-1.4v-.2l-.2-.3V195.2h.2M307 194.7v-.2l.3-.2h1.2l.2.2v.2l.2.2v.8h-.2M306.5 196.3l.2.3M308 197.2v-.2l.2-.3M283.8 183v.2M284 182.2v.2l-.2.3M308.5 196h.2M284.6 181.6h-.2v.3M309.2 195.5h.7M285.7 181.5h-.3l-.2-.2h-.4M310 195.5l-.8-.4" stroke-linecap="round" stroke-linejoin="round"/>
  <path fill="none" stroke="#0091EA" d="M283.2 187l-.2.8-1.4 3.5-1 2.8-3.6 9.4-.4 1-3.5 9.3v.2l-.2.5-.7 1.8.2.2h.2v.3h.5v.2h.3l.2.2h.3l.3.2h.2M250.7 202.3v.5h.2M285.6 186V185h.2v-.2l.2-.2M261.7 170.4v.2l-.2.2v.2l-.2.3v.5M272.3 216.6v.5l.3.2v.3l.3.2.3.2H274.2" stroke-linecap="round" stroke-linejoin="round"/>
  <path fill="none" stroke="#0091EA" d="M274.3 217.8v.4h-.3M274.3 218l.2.2M274.5 218.2h-.2M274.2 217.7v-.2M249.8 203.5v.2M250 203v.2M250 202.4v.3M250.7 201.8l-.2.2M274.5 188v.2l-.3.2v.2l-.2.3-.2.3M286.6 183.5h-.2v.2l-.4.2h-1.2l-.2-.3h-.2v-1.2M284.8 182l.3-.2.3-.2H286.7l.2.2.2.4v.7l-.2.2M284.4 183.6l.3.3M286 184.5v-.5M262 169.7l-.2.3M262.8 168.7h-.2l-.2.3-.2.2v.2M286.5 183.4l.2-.3M287 182.8h.7M263.7 168.8h-.2v-.2h-.5M287.8 182.8l-.6-.4M261.2 174.3l-.3.7-1.4 3.6-1 2.7-.4.8-3.5 9.5-.3.7-3.4 9-.3.6-.6 1.8.2.2.3.2h.2v.2h.3l.2.2h.3l.3.2h.5M228.7 189.6v.5M239.5 158v.2h-.2M263.7 173.6v-.3l-.2-.2v-.4M239.3 158.6v.2" stroke-linecap="round" stroke-linejoin="round"/>
  <path fill="none" stroke="#0091EA" d="M250.2 203.8v.4l.2.2v.3l.3.2h.2v.3l.3.2h1" stroke-linecap="round" stroke-linejoin="round"/>
  <path fill="none" stroke="#0091EA" d="M252.3 205v.3h-.2v.2M228 189.7v.5l-.2.3v.7h.2v.2h.3M252.4 205.5v-.2M252.2 205v-.2M228.7 189l-.2.3-.2.2M251.8 176.4v.2M252.5 175.4l-.3.3v.2l-.3.2M264.6 170.7l-.2.2-.4.2h-1.3v-.2h-.2v-.2l-.2-.2v-1l.2-.2M262.8 169.2h.2l.3-.3.2-.2h1.1l.2.3.2.2V170l-.2.2M262.4 170.8l.3.4M264 171.8v-.5M240.6 156l-.2.3-.2.2-.2.2v.3l-.2.2v.5" stroke-linecap="round" stroke-linejoin="round"/>
  <path fill="none" stroke="#0091EA" d="M264.4 170.7v-.2h.2M265 170h.7M241.6 156h-.8M265.8 170l-.6-.3M228.3 191.2h.2l.2.2h.3l.2.3h.6l.2.2h.2M239.2 161.6l-.3.7-1.4 3.5-1 2.8-2.2 5.6-1.8 4.7-3.6 9.2v.2l-.3.6-.7 1.8v.2h.2M206.7 177v.4M241.6 159.8v-.2l.2-.2v-.3M217.4 145.3v.2l-.2.4v.4M241.7 160.8l-.2-.2v-.7" stroke-linecap="round" stroke-linejoin="round"/>
  <path fill="none" stroke="#0091EA" d="M228.2 191v.5l.2.2v.3l.3.2v.2l.3.2h.2l.2.2H230.3" stroke-linecap="round" stroke-linejoin="round"/>
  <path fill="none" stroke="#0091EA" d="M230.3 192.3v.3h-.2v.2M205.8 178v.4l.2.2.3.2M230 192.3v-.2M206 177v.3M206.7 176.3l-.3.2-.2.3M230.5 162.6l-.3.3-.2.2v.2l-.2.3v.2M242.5 158l-.2.2-.3.2h-.3l-.3.2h-.5l-.3-.2h-.2v-.2l-.2-.3v-1.1l.2-.2M240.8 156.5l.2-.2h.2l.3-.2h.8l.2.2h.2v.3l.2.2V157.4l-.2.3" stroke-linecap="round" stroke-linejoin="round"/>
  <path fill="none" stroke="#0091EA" d="M240.4 158v.2l.2.3M242 158.8v-.2M218.3 143.6v.2h-.2v.5l-.3.2v.3M242.4 158v-.2h.2M219.6 143.4l-.3-.2h-.4l-.3.2M243 157.3h.8M243.8 157.3l-.7-.4M206.2 178.4l.3.2h.2v.2h.4l.3.2h.2l.3.2h.2M217 149v.6l-1.5 3.5-1 3-3.6 9.2-.5 1-3.5 9.3v.2l-.3.6-.7 1.8v.4M184.7 164v.7M219.7 146.7l.2-.3M219.6 148v-.8M195.3 133V133.7" stroke-linecap="round" stroke-linejoin="round"/>
  <path fill="none" stroke="#0091EA" d="M206.2 178.4v.6l.3.3v.2l.3.2.2.2h.4l.2.2h.2l.4-.3" stroke-linecap="round" stroke-linejoin="round"/>
  <path fill="none" stroke="#0091EA" d="M208.2 179.6v.4h-.3M184.6 163.6l-.2.2-.2.2v.3l-.3.2-.2.3v1.2h.5M208.4 180h-.2M208 179.6v-.3M208.3 150l-.2.2v.5l-.2.3v.2M220.5 145.3l-.2.2-.4.2h-.3l-.3.2h-.3v-.2h-.3l-.2-.2v-.2h-.2V144.2h.2M218.7 143.8l.3-.2h.2l.3-.2h1l.2.2v.2l.2.2v.7l-.2.3M218.3 145.4l.3.4M220 146.4v-.5M195.8 131.5v.3l-.2.3v.3M196.5 130.7l-.2.2h-.2v.2M220.4 145.2l.2-.2M221 144.6h.8M197 130.5h-.3M197.6 130.6h-.5M221.8 144.6l-.7-.4" stroke-linecap="round" stroke-linejoin="round"/>
  <path fill="none" stroke="#0091EA" d="M195 136.2l-.2.7-1.3 3.4-1 2.8-3.6 9.3-.5 1-3.5 9.3v.2l-.4.6-.6 1.8v.2l.2.2h.2l.2.2h.3l.2.2h.2l.3.2h.4M162.8 152.2v.3l.2.2.2.2h.2l.2.2M163 150.7h-.2v.3l-.2.2v.7M197.6 135.4v-.2l-.2-.2v-.5l.2-.3M173.6 119.6l-.2.3v.2l-.2.2v.5" stroke-linecap="round" stroke-linejoin="round"/>
  <path fill="none" stroke="#0091EA" d="M184 165.7h.2v.6l.2.2.2.3.2.2.2.2h.2l.2.2h.5l.2-.2" stroke-linecap="round" stroke-linejoin="round"/>
  <path fill="none" stroke="#0091EA" d="M186.2 167v.2h-.2v.2M162 151.6v.2l-.2.3v1.2h.2l.4.3 1 .5 1.4 1 .6.2 8.6 5 8.7 5 1.4.8M186 166.8v-.2M185.7 138.2v.3M188 137.2l-.6-.3v-.2h-.3l-.3.2h-.2l-.2.3M198.5 132.6l-.2.2-.4.2H196.6l-.2-.2-.2-.3v-.7l.2-.3M196.7 131h.2l.2-.2h.2v-.2h.8l.2.2h.2l.2.3v1.2M196.3 132.7l.3.3M194 133.4l-5 3.2-.7.5-.2.2M198 133.6v-.5M197.4 130.6l-8.4-5-2.7-1.5-1.6-.8-6.7-4-2.6-1.4h-.6l-.2.2h-.2l-.2.3v.3l-.2.2v.3l-.2.3v.3M198.3 132.5l.2-.2M199 132l.2-.2M199.4 131.8h.2M199.7 132l-.6-.5M113.5 276l-8.6 5-8.8 5-8.6 5-1.7.8v7.5M194 299.7v-8l-8.6-5-8.6-5-8.7-5-2.6-1.5M140 323v8" stroke-linecap="round" stroke-linejoin="round"/>
  <path fill="none" stroke="#0091EA" d="M194 291.8l-6.4 3.8-8.7 5-8.7 5-8.7 5-8.7 5-8.7 5-4.3 2.4-8.6-5-8.7-5-8.7-5-8.6-5-8.7-5-4.3-2.4-6.5-3.8M150.7 157.7h-1l-2.8.4-5.6.8h-1l-2-.2h-.9l-1.3-.3h-.3l-3-.3-2.6-.3h-1l-3-.5-1.3-.5-2.7-1-2.8-1.2-2.5-1h-.5l-2-1-.4-.2-.5-.5-7.2-6.2-2.8-8.2M104 130.7l-.5 1.3v5.4" stroke-linecap="round" stroke-linejoin="round"/>
  <path fill="none" stroke="#0091EA" d="M103.5 132l1 2.7 1.8 5.5 7.2 6.3.6.4.4.2 2 .8.6.2 5.2 2 2.7 1 1.4.6 6 .7 3.6.4h1.7l.2.2h1.1l1.2.3h.9M169 150.8l-2 1.8h-.2M137.5 304.3v.3l-.2.2v.5l.2.3M165.3 291.4v-.8M139.3 305.5V306.4M162 264v.7M162 264.3v-.2M164.6 264.4h-.2l-.2.3h-1.7l-.2-.2h-.2M113.5 290.7v.7M137.5 279v.2l-.2.2v.4l.2.2M165.4 265.8v-.7M140.8 252.5v.2M162 238.5v.8M164.6 239h-.2l-.2.2h-.7l-.3.2h-.4l-.3-.2h-.2l-.2-.2v-.5M164 267.4h.2l.2-.2h.2M113.5 265.3v.6M117 238.7v.2h-.2l-.2.2h-.5M137.5 253.4v.3l-.2.2v.4l.2.2M165.3 240.6V239.6M140.8 227v.2M141 255v-.2M162 213v.8M163 214h-.2l-.3-.2h-.2v-.2h-.2v-.4M164.6 213.5l-.2.2h-.2l-.3.2h-.4M164 242h.2l.2-.2.2-.2M113.5 240v.4M115.4 240.6v.3h.2v.4M117 213.3l-.2.3h-.2v.2h-.5M137.5 228v.3l-.2.2v.5l.2.2M165.3 215v-.5M162 187.6v.8M162 188v-.4M164 188.4H162.8M164 216.5h.2l.2-.2h.2M113.5 214.4v.6M115.4 215.2v.2l.2.3v.2M117 187.8v.2l-.2.2M137.5 202.6v.2l-.2.3v.5l.2.2M165.4 189.6v-.8M140.8 176.2l-.2.3M162 162.2v.8M164 191h.4v-.2h.2M113.5 189v.7M115.4 189.7v.3l.2.3v.2M117 162.4v.2h-.2l-.2.2h-.2l-.3.2M137.5 177v.4l-.2.2v.3l.2.3M165.3 164.2V163.2M141 178.7v-.2M113.5 163.5V164.2M115.4 164.3v.3l.2.2v.3M113.7 267.3v-.2h-.2M114.2 267.6h-.2l-.2-.2M137.5 280.7v.7M165.4 266.3v.2l-.2.2-.2.2h-.5" stroke-linecap="round" stroke-linejoin="round"/>
  <path fill="none" stroke="#0091EA" d="M113.5 267v.3l-.2.2-.2.3V269l.3.2.2.2M113.8 269v.2M113.5 241.5v.2M113.7 241.8l-.2-.3M113.5 269.6l.2.3.3.2h.2l.3.2h.8M114.7 242.3h-.5v-.2h-.2M137.5 255.3v.7M137.6 255.6v-.3M138 256l-.2-.2M164 269.7V268.2l.2-.3.3-.3.2-.2M164.8 269.8h-.5M165 269.6l.3-.2.2-.2.2-.2v-.3l.2-.2v-.8l-.2-.3M165.4 267.2h.3M165 267.3h.3M165.4 241l-.2.2v.2M164.8 269.6h.3M113.5 241.7v.2h-.2l-.2.4v1.2h.3l.2.3M113.5 216v.3M114.7 217l-.2-.2h-.5v-.2h-.2v-.2l-.2-.2M113.5 244v.3l.2.2.3.2h.2l.3.2h.8M137.5 230v.6M137.6 230.2v-.2M164.8 244.4h-.7V243l.2-.3v-.2l.3-.3h.2v-.2M165 244.2l.3-.2.2-.2.2-.2v-.3l.2-.3V242h-.2M165.4 241.8h.3M165 242v-.2h.3M165.4 215.5l-.2.3-.2.2h-.2v.2h-.3M164.8 244.2l.3-.2M113.5 216.3l-.2.4-.2.2V218l.3.2h.2M113.5 190.6v.2M113.8 191l-.2-.2v-.2M113.5 218.7v.2h.2v.2h.3v.2h1.3M114.7 191.4h-.2M137.5 204.4v.7M137.6 204.8v-.4M164.7 219H164v-1.5l.2-.2v-.3l.3-.2.2-.2M165 218.7h.3v-.2h.2l.2-.4.2-.4v-.8l-.2-.2-.4-.3M165.4 216.3h.3M165 216.4h.3M165.4 190v.2M164.8 218.8l.3-.2M113.5 190.8v.2l-.2.2-.2.3v1.2l.3.2h.2M113.5 165.2v.2M114.7 166h-.5v-.2h-.2l-.2-.2-.2-.3M113.5 193.3l.2.3.3.3h1.3M137.5 179v.7M137.5 179.2v-.2M164.8 193.5h-.7V192l.2-.2v-.2l.3-.2.2-.2M165 193.3l.3-.2h.2l.2-.3v-.3l.2-.2V191h-.2v-.2l-.4-.2M165.4 191h.3M165 191h.3M164.8 193.3l.3-.2M140.4 182h.2v-.4l.2-.2v-.3h.2v-.8l-.2-.2M113.5 165.4l-.2.4-.2.2v1.4h.3l.2.2M113.5 167.8v.2h.2v.3h.3v.2h.5l.2.2h.6M165.7 165.5h-.3M165.4 165.5h.3M165 165.5h.3M164.8 168v-.2h.3M394.4 389l.6-.6 1.7-1.6.7-2.3-.7-2M63.8 435.6v.2l.2.2M63.4 435l.2.3M63.8 436.4l.2.3v.2h.2M63.2 435.3v.2l.2.3.2.2M62.6 434.2v.4h.2v.2h.2v.3M63.8 437v.2l.2.2M63.2 436v.2l.2.3.2.2v.2M62.6 435v.3h.2v.2h.2v.3M62 434.2h.2v.2l.2.2M63.2 436.7v.2l.2.2.2.2M62.6 435.6v.4h.2v.2l.2.2M62 434.8l.2.3v.2h.2v.2M64.2 437.3H64" stroke-linecap="round" stroke-linejoin="round"/>
  <path fill="none" stroke="#0091EA" d="M63.8 436.8h-.2v.2h-.2M63.5 437.3h.2v-.2h.2M63.2 436.4l-.2.2h-.2M63 436.8h.2v-.2M63.5 436.6l.2-.2h.2M63.8 436l-.2.2h-.3M62.6 436l-.3.2M63.2 435.7l-.2.2h-.2M63 436.2l.2-.2M63.7 435.4l-.2.2h-.2M63.5 435.8h.2v-.2h.2M62.3 435.8h.2v-.2h.2M62.6 435.4h-.3v.2M63 435.5l.2-.2M63.2 435H63l-.2.2M62.6 434.6l-.3.2H62M62.2 435h.4M63 434.5h-.2M63 434.8v-.2M62.2 434.4h.3v-.2M49.4 427.3l.2-.6.6-.5.8-1" stroke-linecap="round" stroke-linejoin="round"/>
  <path fill="none" stroke="#0091EA" d="M49.5 426.7l-.5 2 .2.8M57.6 435.3v-.7l.2-1-.2-2.2M93.4 451.8l-.3 1v.2l-.3.8.4 1.3.2.3.2.8M392.4 257.8l1 .2h.2l1.2.4 1-.2h.5v-.2h.2l1-.2 1-1.4-1-1.4-2.6-.6-2.4.6-.5.8h-.2l-.4.6 1 1.4M147.8 484v.5h.2v.2l.2.2M147.2 483.2v.2h.2v.2l.2.3M157 490.6h-.2v.2M157 491v-.2M157.6 490.2l-.2.2h-.2M157.3 490.7h.2v-.2h.3M158 490l-.2.2M158 490.4v-.2M157 490h-.4v.2M156.7 490.4l.2-.2M157.6 489.5l-.2.2h-.2M157.3 490h.2v-.2h.2M138 479.5h-.2v.2h-.4M137.6 480h.2v-.2h.2M138.3 479.3h-.2v.2M138 479.7h.2l.2-.2M157 489.2h-.2l-.2.2M156.7 489.7v-.2h.2M133 477v.2l.2.3M156.4 488.8h-.2v.2M156.2 489.2h.2v-.2M156.8 488.6h-.2M156.7 489v-.2h.2M147.8 484.8v.4h.2v.2l.3.3M147 483.7l.2.2v.2h.2v.2l.2.2M146.6 482.8v.4h.2v.2h.2M132.3 476v.2h.2v.3l.3.2M147.8 485.5v.4h.2v.2M147 484.5h.2v.3l.2.2v.2h.2M146.5 483.4v.2h.2v.4h.2v.2M146.3 483v.2M137.3 479.2h-.2v.2M137 479.5h.4M138 478.8h-.2v.2h-.4M137.5 479.3h.2l.2-.2M138.2 478.7h-.2M138 479h.2M153.3 488.5h-.2v.2h-.2M153 489l.2-.2h.2M147 485.2h.2v.2M146.5 484v.3l.2.2v.2h.2v.3M152.7 488v.2h-.4M152.4 488.5h.2l.2-.2M153.2 487.8h-.2v.2h-.2M153 488.2h.2M137.3 478.5h-.2v.2h-.2M137 479v-.2h.4M138 478l-.2.2h-.2l-.2.2M137.5 478.6h.2l.2-.2M152 487.7l-.2.2M152 488h.2M152.7 487.4h-.2l-.2.2M152.3 488v-.2h.4v-.2M153 487.2h-.2M131.7 474.8v.5l.3.2.2.2M152 487l-.2.2h-.2M151.7 487.5h.2v-.2h.2M152.7 486.7h-.2l-.2.2M152.3 487.2l.2-.2h.2M131.3 474.3l.3.3M136.5 478.5h.2v-.2M137.3 477.8h-.2v.2h-.2M151.5 486.7h-.2M151.3 487h.2M152 486.3l-.2.2h-.2M151.7 486.8h.2v-.2h.2M152.3 486.4h.2M137 478.3v-.2h.4M151.2 486.4l.3-.2M151.5 486h-.2M152 485.7h-.2l-.2.2M151.7 486h.2M137.5 478v-.2M132.3 476.6v.3h.2v.2M131.7 475.5v.3l.3.3.2.3M136.3 478v-.2h.4v-.2M136.6 477.4h-.2v.2M137 477.2h-.2M137 477.5h.2" stroke-linecap="round" stroke-linejoin="round"/>
  <path fill="none" stroke="#0091EA" d="M148.4 485.6h-.3v.2M148 486h.4M131.3 475l.3.3M147.8 485.2h-.2v.2h-.2M147.5 485.7l.3-.2M148.2 485h-.2v.2M148 485.4h.2v-.2M142.8 481.3v.2h.2v.2l.2.3M142.3 480.4v.3h.2v.2h.2M142.8 482v.2h.2v.3l.2.2M142.2 481v.2l.2.2.2.2v.2M141.6 480v.2h.2v.2l.2.2M147 485.2h.2M147.8 484.5h-.2v.2h-.2M147.4 485h.2l.2-.2M148 484.7h.2M142.8 482.7v.2h.2v.2M142.2 481.6v.4h.2v.2h.2v.3M141.6 480.5v.3l.2.2.2.3M147 484.2l-.2.2M146.8 484.7l.2-.2h.2M147.8 483.8h-.2v.2h-.2M147.4 484.3h.2l.2-.2M133.5 477v.2h-.4M133.2 477.5h.2M146.4 484.2h.2v-.2M147 483.5l-.2.2M146.8 484l.2-.2h.2M142.2 482.3v.4M141.6 481.3v.2l.2.2.2.3M133 476.7h-.2l-.2.2M132.6 477h.4M146.5 483v.2h-.2M146.3 483.5h.2v-.2M147 483h-.2M146.8 483.2h.2M133.4 476.5h-.2M157.6 489.8l.2.4v.2l.3.3M157 488.8v.3h.2v.3l.3.3M133.2 476.8h.2M158.3 491.6v.2M157.6 490.5l.2.4v.2l.3.2M157 489.4v.4h.2v.2l.3.3M156.5 488.6v.2h.2v.2l.2.2M157.6 491.2v.3h.2v.3M157 490.2v.3h.2v.2l.3.3M156.4 489v.4l.3.3.2.2M132.3 476.3h-.2v.2M132.2 476.7h.2M133 476h-.2l-.2.2M132.6 476.5l.2-.2h.2M156.4 490v.2l.3.2.2.3M132.3 475.6h-.2v.2M132 476h.4v-.2M133 475.3h-.2l-.2.2M132.6 475.8l.2-.2h.2M143.4 482.8h-.2v.2h-.2M143 483.2h.2l.2-.2M138.4 480h-.2v.2h-.2M138 480.4h.4v-.2M138 478.4V479h.3M137.3 477.5v.2l.2.2h.2v.2M131.5 475.7l.2-.2M131.7 475.3h-.2M132.3 475h-.2v.2M132 475.4h.2v-.2h.2M132.6 475" stroke-linecap="round" stroke-linejoin="round"/>
  <path fill="none" stroke="#0091EA" d="M142.8 482.4h-.2v.2h-.2M142.6 482.8h.2v-.2M143.3 482v.2h-.2M143 482.5h.2M138 479V479.7l.3.3M137.3 478v.3l.2.3.2.2M136.7 477v.2l.2.3v.2M131.4 475h.2v-.2h.2M131.7 474.6h-.2M142.2 482l-.2.2M142 482.4h.2M142.8 481.7h-.2v.2h-.2M142.5 482.2l.2-.2h.2M143.2 481.5h-.2M143 481.8h.2M132 474.3v.2M132 474.7h.2v-.2M138 479.8v.7M137.3 478.8v.2l.2.3.2.2M136.7 477.7v.2l.2.2v.3M136.3 477.2l.2.2M137.3 479.5v.2M136.7 478.4v.3l.2.2v.2M152.7 487v.3l.3.2.2.3M152 486l.2.2v.2l.2.2h.2M136.5 478v.2M142.2 481.3l-.2.2h-.2M142 481.8l.2-.2M142.8 481h-.2v.2h-.2M142.5 481.5l.2-.2h.2M131.4 474.3h.2M152.7 487.7v.3l.3.2.2.3M152 486.6l.2.4v.2h.2l.2.3M151.5 485.7v.2h.2v.2l.3.2M141.5 481.3h.2M141.6 481h-.2M142.2 480.6h-.2v.2h-.2M142 481h.2v-.2M157.6 491h-.2v.2h-.2M152.7 488.4v.4h.3v.2M152 487.3l.2.4v.2h.2l.2.2M151.5 486.2v.4l.2.2.3.3M157.4 491.4l.2-.2h.2M158.2 490.6h-.2v.2h-.2M152 488l.2.3M151.5 487v.3l.2.2.3.3M158 491h.2M141.6 480.3h-.2l-.2.2M141.4 480.7l.2-.2M142 480h-.2v.2M142 480.4l.2-.2M133 475.5v.3l.2.3v.2M132.4 474.7l.2.3.2.3M158.2 491.3h-.2v.2h-.2M158 491.8l.3-.2M133 476.3v.2l.2.3.2.2M132.3 475.2v.3h.2v.3l.3.2" stroke-linecap="round" stroke-linejoin="round"/>
  <path fill="none" stroke="#0091EA" d="M131.7 474.2v.2l.3.3.2.2M191.3 488.5l4.7-.7 7.4-4 4.3-2.3 7-4 6.7-4 6.8-3.8.7-.5 2.8-1.6 8-4.7 8.7-5 8.7-5 8.6-5 1-.7 6.8-4 5-2.7h.2l4.3-2.6 2-1 1-.7 8-4.6 8.6-5 8.7-5 8.6-5 1-.6 6.8-3.8 5-3 4.4-2.5 2.8-1.6 8-4.6h.3M489 319h.4l4-2.5 1.2-.7 5-3.3.3-.2M51 391l-1 .7M500 312l2.4-5.3.3-.6-2.6-5.6-8.2-5.5-1.8-1.2-8.7-5-2.2-1.3-8.6-5-8.6-5-8.7-5-5-3-6.2-3.5-8.7-5M424.3 256l-6-3.6-7.5-4.3-6.4-3.6-8.6-5-8.8-5-8.6-5-2.2-1.3-9-4.5-2.6-1.3-10-1.5-9.8 1.5h-.8l-2 1M43.3 395.7L40 398l-2.7 6 .3.5 2.3 5.2.2.2M153 475.8l8.6 5 2.2 1.3 9 4.6 2.6 1.3 8.5 1.2M184.2 489.2l1 .2 6-1M467 322.8l-4.6 2.7-8.7 5-8.6 5-8.6 5-3 1.7-8.6 5-3.3 2-8.6 5-8.2 4.6-8.6 5-.6.3-8.7 5-3.4 2-4.3 2.5-8.6 5-3.3 2-8.6 5-8.7 5-8.6 5-8.7 5-3.2 1.8-4.3 2.5-8.7 5-3.2 1.8-8.7 5-8.6 5-8.7 5-8.7 5-.7.5-2.6 1.5-4.3 2.5-8.6 5-3.3 2-8.5 5-8.7 5-8.7 5-8.5 5-3.3 1.8-6.2 3.6-.3.2-5-3-8.6-5-1-.5-8.6-5-2-1-8.7-5-4.7-2.7-7-4-8.7-5-2.2-1.4-8.5-5-6.2-3.6-3-1.7-7-4-4.8-3-8.7-5-8.7-5-8.5-5-5.2-3-8.7-5-2-1-7-4L77 389l-5-2.8M47.6 393l-.8.5-1 .6M45.6 413.4l4.4 3 8.7 5 .6.3 1.6 1 8.6 5 8.7 5 8.7 5 5 3M135.2 349.6l8.6-5 8.7-5 8.7-5 8.6-5 8.4-4.8M382 381l5-3 4.3-2.5 3-1.7 8-4.6 8.6-5 .8-.5 8.7-5 8.8-5 6.7-4 5-3h.2l8.6-5 8.7-5 8.7-5 3-1.7M182 322.5l8.8-5 7.8-4.5 8.7-5 8.6-5 8.6-5 7.2-4M470.2 321l-.3.2-2.8 1.6M246.8 285.2l8.6-5 6.7-3.8 4.2-2.4 1.7-1 3-1.8.4-.2 1.3-.7 8.6-5 5.2-3 4-2.3 3.8-2.2 1.5-1 1-.4M72 386.2l.2-.2M142.5 437.6v.3l-.7 1.5-.6 1.8-3.7 3.2-5.4 2-6.4 1-6.5-1-1-.4M108.7 437.6l1.2-3.8 3.6-3 5.5-2.2 6.5-.8 3.8.5 2.7.3 1.4.5.7.4 3.5 1.3 3.7 3.2.2.4.3 1 .8 2.2M108.7 437.6" stroke-linecap="round" stroke-linejoin="round"/>
  <path fill="none" stroke="#0091EA" d="M110.8 442l-1-.7-.5-1.8-.5-1.6v-.4M117.2 446l-3.6-1.5-2.4-2M260.6 286.2l1.5-.8 8.7-5 8.7-5 7.2-4.2 1.3-.7M457 350.7l-.4-1.4-1.6-.3-1 .6-.7.4-2.2 1.2-5.7 3.4-8 4.6-1.8 1-.2.5-.8 1.4v.6l-.5 1.4.5 1.3h1" stroke-linecap="round" stroke-linejoin="round"/>
  <path fill="none" stroke="#0091EA" d="M435.5 365.4l1.7-1 8-4.6 8-4.7 1.8-1 1.6-1.4.5-2M435.2 365.5H434v-.2l-.4-1.3.3-1.2v-1l.6-.7.6-1 1.8-1 8-4.8 6.8-4 1.3-.6 1-.6 1-.4 1.5.4.6 1.4M491 334l-.3.3M495 318.4v.2l1 1.3.6 1.7.8 2.6.2 2.2v.2l-.2 2-.8 1.8-1.2 1-.2.2M117.8 467.8l-1-1.3-.6-1.8v-.2M362.8 406.4v-.2l-.2-.7-.2-.8.2-1.5.2-1 1-2 .4-.6 2-1 8.5-5 8.6-5 2.2-1.3 7-4 2-1.2.6.2 1.3.2h.4" stroke-linecap="round" stroke-linejoin="round"/>
  <path fill="none" stroke="#0091EA" d="M362.8 406.4h1.4l2-1 8.5-5 8.7-5 8.6-5 .6-.4 2-1 2-2.2 1-2.3-1-2M207 497l.3-.8.2-2-.2-2.4-.8-2.6-.7-1.8-.8-1.3M490.8 334.2l.3-.2 1.2-1 .8-1.7V330l.2-.8-.2-2.3-.8-2.8-.7-1.7-.8-1.4M331 228.8h-.2M45.3 393.8H45M93.4 451.8h.3l.4-.3 1.4-.5h.4l1 .4 1.3.8 5.4 3 5.3 3 2.3 1.4 1.2 3 .4 2.7-.2 1v.6h-.2M112.2 467l-1.3.3-2.3-1.3-5.3-3-5.3-3-2.2-1.4-2.4-2.5-.3-.8v-.2l-.4-1.2.3-.7v-.2l.4-1M51 425.4l1-.4M52 425l1-.2.7.2 1 .2 1.5 1.5 1 2.2.4 2.4.2 2.3v1l-.2.6M49.2 429.5l-.2-1 .5-1.8 1.5-1.3M57.6 435.4l-.4.7h-1l-1.4-.6-2-1.2-1.8-1.7-1.5-2v-.4l-.2-.3v-.2M209 483.5l.2.2.8 1.3.7 1.8.8 2.6.2 2.3-.2 2-.8 2-1 1h-.4M206.5 498l.5-1M115.2 432.2l4.8-1.8 5.5-.6 5.6.6 5 2 3 2.6.5 1.2.7 2-1 3.2-3.3 2.8-4.8 1.8-5.6.6-5.6-.6-4.7-1.8-3.2-2.8-1-3.2.7-2 .4-1.2 3.2-2.8" stroke-linecap="round" stroke-linejoin="round"/>
  <path fill="none" stroke="#0091EA" d="M142.5 437.6l-.8-2.2-.3-1-.2-.5-3.7-3.3-3.4-1.3-.6-.3-1.4-.4-2.7-.3-3.8-.5-6.4.8-5.4 2-3.7 3.2-1.3 3.8M108.7 437.6l.6 2 .6 1.7.8.7M110.8 442l.4.4 2.4 2 3.6 1.5h.7" stroke-linecap="round" stroke-linejoin="round"/>
  <path fill="none" stroke="#0091EA" d="M118 446l1 .6 6.6.8 6.5-.8 5.5-2 3.7-3.3.6-1.8.7-2M456.8 349.6l.3 1M457 350.7l-.4 2-1.6 1.4-1.7 1-8 4.8-8 4.6-1.8 1" stroke-linecap="round" stroke-linejoin="round"/>
  <path fill="none" stroke="#0091EA" d="M435.5 365.4h-1l-.5-1.4.4-1.4v-.5l1-1.3v-.5l1.8-1 8-4.6 6-3.4 2-1.2.7-.4 1-.6 1.6.3.5 1.4" stroke-linecap="round" stroke-linejoin="round"/>
  <path fill="none" stroke="#0091EA" d="M457 350.5l-.4-1.5-1.7-.4-1 .4-1 .6-1.2.7-6.7 4-8 4.6-1.8 1-.6 1-.5 1v.8l-.4 1.2.5 1.3v.2H435.3M495.4 331.6h-.2l-3.3 2-1 .4M335.3 226.3" stroke-linecap="round" stroke-linejoin="round"/>
  <path fill="none" stroke="#0091EA" d="M495.2 331.7h.2l1.2-1v-.2l.8-1.7.2-2v-.3l-.2-2.2-.8-2.6-.7-1.8-1-1.4v-.2M490.6 321l1 1.5.6 1.7.8 2.7.2 2.2v1l-.2 1-.8 2-1 .8-.4.2M331 228.8h-.2M426.6 265.2l1-.2h.2l.6-.2.8-1-.8-1-1.8-.5-1.8.4-.7 1 .8 1 .6.3h.3l1 .2M426.2 276.3h-.6M426 276H425M427 276h-.8M428 276h-.7M425.3 275.7H424.7M426.4 275.7h-1M427.6 275.7h-.8M428.5 275.6H427.8M424.8 275.3h-.8M426 275.3H425M427 275.3h-.8M428 275.3h-.7M428.6 275.3h-.2M424.2 275h-.7M425.3 275h-.7M426.4 275h-1M427.6 275h-.8M428.2 275h-.5M423.6 274.7h-.7M424.8 274.7h-.8M426 274.7H425M427 274.7h-.8M427.6 274.6h-.3M423 274.4h-.7M424.2 274.4h-.8M425.3 274.4h-.7M426.4 274.4h-1M427 274.3h-.2M422.5 274h-.7M423.6 274h-.8M424.8 274h-.8M426 274H425M426.5 274h-.3M422 273.7h-.8M423 273.7h-.7M424.2 273.7h-.8M425.3 273.7h-.7M426 273.6h-.5M421.4 273.4H420.5M422.5 273.4H421.6M423.6 273.4h-.8M424.8 273.4h-.8M425.4 273.3h-.3M420.8 273h-.7M422 273h-.8M423 273h-.7M424.2 273h-.8M424.8 273h-.3M420.3 272.7H419.7M421.4 272.7H420.5M422.5 272.7H421.6M423.6 272.7h-.8M424.3 272.7h-.3M419.7 272.4H419M420.8 272.4h-.7M422 272.4h-.8M423 272.4h-.7M423.7 272.3h-.3M419 272H418.4M420.3 272h-.7M421.4 272h-.8M422.5 272H421.6M423 272h-.3M418.6 271.8h-.8M419.7 271.8h-.8M420.8 271.8h-.7M422 271.8h-.8M422.6 271.7h-.3M418 271.4h-.7M419 271.4h-.8M420.3 271.4h-.7M421.4 271.4H420.5M422 271.4h-.4M417.5 271h-.7M418.6 271H417.7M419.7 271h-.8M420.8 271h-.7M421.5 271h-.3M417 270.8H416M418 270.8H417M419 270.8h-.8M420.3 270.8h-.7M421 270.7h-.4M416.3 270.5h-.7M417.5 270.5h-.7M418.6 270.5H417.7M419.7 270.5h-.8M420.4 270.4h-.3M415.8 270h-.8M417 270h-1M418 270H417M419 270h-.8M419.8 270h-.3M428 275.6v.4M428.3 276v-.4M428 275v.4M428.3 275.5v-.4M415.2 269.8h-.8M416.3 269.8H415.3M417.5 269.8h-.7M418.6 269.8H417.7M419.3 269.7h-.4M427.6 275.3v.4M427.8 275.8v-.4M427.6 274.6v.4M427.8 275v-.2M414.7 269.5H414M427 275.6v.4M427.2 276v-.4M427 275v.4M427.2 275.5v-.4M427 274.3v.4M427.2 274.8v-.3M415.8 269.5H415M417 269.5h-1M418 269.5H417M418.7 269.4h-.5M426.4 276v.2M426.7 276.2v-.2M426.4 275.3v.4M426.7 275.8v-.4M426.4 274.6v.4M426.7 275v-.4M426.4 274v.4M426.7 274.5v-.3M414 269.2h-.7M415.2 269.2h-1M416.3 269.2H415.3M417.5 269.2h-.7M418 269l-.3.2M426 275.6v.4M426 276v-.4M426 275v.4M426 275.5v-.4M426 274.3v.4M426 274.8v-.5M426 273.7v.4M426 274.2v-.4M413.5 268.8h-.7M414.7 268.8h-.8M415.8 268.8H415M417 268.8h-1M417.6 268.8h-.5M425.5 276.2v-.2M425.3 275.3v.4M425.5 275.8v-.4M425.3 274.6v.4M425.5 275v-.4M425.3 274v.4M425.5 274.5v-.5M425.3 273.3v.4M425.5 273.8v-.4M424.8 275.6v.2M425 276v-.4M424.8 275v.4M425 275.5v-.4M424.8 274.3v.4M425 274.8v-.5M424.8 273.7v.4M425 274.2v-.4M424.8 273v.4M425 273.5v-.3M413 268.5h-.8M414 268.5h-.8M415.2 268.5h-1M416.3 268.5H415.3M417 268.4h-.3M424.4 275.6v-.2M424.2 274.6v.4M424.4 275v-.4M424.2 274v.4M424.4 274.5v-.5M424.2 273.3v.4M424.4 273.8v-.4M424.2 272.7v.4M424.4 273.2v-.5M412.4 268.2h-.7M413.5 268.2h-.9M414.7 268.2h-.8M415.8 268.2H415M416.5 268h-.2v.2h-.3M424 275.3v-.2M423.6 274.3v.4M424 274.8v-.5M423.6 273.7v.4M424 274.2v-.4M423.6 273v.4M424 273.5v-.4M423.6 272.4v.4M424 273v-.4M423.3 275v-.4M423 274.6v.2M423 274v.4M423.3 274.5v-.5M423 273.3v.4M423.3 273.8v-.4M423 272.7v.4M423.3 273.2v-.5M423 272v.5M423.3 272.5v-.4M412 268h-.3l-.2-.2h-.4M413 268l-.4-.2h-.5M414 268l-.2-.2h-.6M415.2 268l-.3-.2h-.7M416 267.8H415.3M422.5 274.3v.2M422.7 274.6v-.2M422.5 273.7v.4M422.7 274.2v-.4M422.5 273v.4M422.7 273.5v-.5M422.5 272.4v.4M422.7 273V272.3M422.5 271.7v.4M422.7 272.2v-.4M411.3 267.5h-.8M412.4 267.5h-.8M413.5 267.5h-.9M414.7 267.5h-.8M415.4 267.5h-.5M422.2 274.3v-.2M422 273.3v.4M422.2 273.8v-.4M422 272.7v.4M422.2 273.2v-.5M422 272v.5M422.2 272.5v-.4M422 271.4v.4M422.2 272v-.4M410.7 267.2h-.7M412 267.2h-1M413 267.2H412M414 267.2h-.8M414.8 267.2h-.5M421.6 274v-.2M421.4 273v.4M421.6 273.5v-.5M421.4 272.4v.4M421.6 273V272.3M421.4 271.7v.4M421.6 272.2v-.4M421.4 271V271.7M421.6 271.6v-.4M421 273.6v-.2M420.8 273.3v.2M420.8 272.7v.4M421 273.2v-.5M420.8 272v.5M421 272.5v-.4M420.8 271.4v.4M421 272V271.3M420.8 270.7v.4M421 271.2v-.2M410.2 267l-.4-.2h-.4M411.3 267l-.3-.2H410.3M412.4 267l-.3-.2h-.5M413.5 267l-.3-.2H412.5M414.2 266.8h-.4M420.3 273v.2M420.5 273.3v-.2M420.3 272.4v.4M420.5 273V272.3M420.3 271.7v.4M420.5 272.2v-.4M420.3 271V271.7M420.5 271.6v-.4M420.3 270.4v.4M420.5 271v-.4M409.6 266.6h-.8M410.7 266.6h-.9M412 266.6h-1M413 266.6H412M413.7 266.5h-.5M420 273v-.2M419.7 272.7v.2M419.7 272v.5M420 272.5v-.4M419.7 271.4v.4M420 272V271.3M419.7 270.7v.4M420 271.2v-.5M419.7 270v.5M420 270.6v-.3M419.4 272.7v-.2M419 271.7v.4M419.4 272.2v-.4M419 271V271.7M419.4 271.6v-.4M419 270.4v.4M419.4 271V270.3M419 269.8v.4M419.4 270.3v-.2M409 266.3h-.8M410.2 266.3H409.2M411.3 266.3H410.3M412.4 266.3h-.8M413 266.2h-.4M418.8 272.3v-.2M418.6 272v.2M418.6 271.4v.4M418.8 272V271.3M418.6 270.7v.4M418.8 271.2v-.5M418.6 270v.5M418.8 270.6v-.5M418.6 269.5v.4M418.8 270v-.4M408.5 266H407.8M409.6 266h-.8M410.7 266h-.9M412 266h-1M412.6 266h-.5M418 271.7v.2M418.2 272v-.2M418 271V271.7M418.2 271.6v-.4M418 270.4v.4M418.2 271V270.3M418 269.8v.4M418.2 270.3v-.4M418 269V269.7M418.2 269.6v-.4M408 265.6H407M409 265.6h-.9M410.2 265.6H409.2M411.3 265.6H410.3M417.7 271.7v-.2M417.5 271.4v.2M417.5 270.7v.4M417.7 271.2v-.4M417.5 270v.5M417.7 270.6v-.5M417.5 269.5v.4M417.7 270V269.3M417.5 268.8v.4M417.7 269.3v-.3M412 265.5h-.5M417 271v.2M417 271.4v-.2M417 270.4v.4M417 271V270.3M417 269.8v.4M417 270.3v-.4M417 269V269.7M417 269.6v-.4M417 268.5v.4M417 269v-.4M407.4 265.3h-.8M408.5 265.3h-.8M409.6 265.3H408.6M410.7 265.3h-.9M411.5 265.2h-.5M416.6 271v-.3M416.3 270.7v.2M416.3 270v.5M416.6 270.6v-.5M416.3 269.5v.4M416.6 270V269.3M416.3 268.8v.4M416.6 269.3v-.5M416.3 268.2v.4M416.6 268.6v-.2M406.8 265h-.8M408 265h-1M409 265h-.9M410.2 265H409.2M411 265h-.6M415.8 270.4v.2M416 270.7v-.2M415.8 269.8v.4M416 270.3v-.4M415.8 269V269.7M416 269.6v-.4M415.8 268.5v.4M416 269v-.4M415.8 267.8v.4M416 268.3v-.2M415.4 270.4v-.2M415.2 270v.2M415.2 269.5v.4M415.4 270V269.3M415.2 268.8v.4M415.4 269.3v-.5M415.2 268.2v.4M415.4 268.6v-.4M415.2 267.5v.4M415.4 268v-.4M406.2 264.6h-.6M407.4 264.6H406.4M408.5 264.6h-.8M409.6 264.6H408.6M410.3 264.6h-.4M415 270v-.2M414.7 269V269.7M415 269.6v-.4M414.7 268.5v.4M415 269v-.4M414.7 267.8v.4M415 268.3v-.4M414.7 267.2v.4M415 267.7v-.3M406.8 264.3h-.9M408 264.3h-1M409 264.3h-.9M409.8 264.2h-.5M414.3 269.7v-.2M414 268.8v.4M414.3 269.3v-.5M414 268.2v.4M414.3 268.6v-.4M414 267.5v.4M414.3 268v-.4M414 267v.4M414.3 267.4v-.4M406.2 264h-.5M407.4 264H406.4M413.5 269v.2M413.8 269.4v-.2M413.5 268.5v.4M413.8 269v-.4M413.5 267.8v.4M413.8 268.3v-.4M413.5 267.2v.4M413.8 267.7v-.5M413.5 266.5v.4M413.8 267v-.2M408.5 264h-.8M409.2 264h-.5M413.2 269v-.2M413 268.8v.2M413 268.2v.4M413.2 268.6v-.4M413 267.5v.4M413.2 268v-.4M413 267v.4M413.2 267.3v-.2M413 266.2v.4M413.2 266.7v-.4M408 263.7h-.4M408.7 263.6H408M412.6 268.8v-.2M412.4 267.8v.4M412.6 268.3v-.4M412.4 267.2v.4M412.6 267.7v-.5M412.4 266.5v.4M412.6 267v-.4M412.4 266v.4M412.6 266.4v-.4M412 268.4v-.2M412 267.5v.4M412 268v-.4M412 267v.4M412 267.3v-.2M412 266.2v.4M412 266.7v-.4M412 265.6v.5M412 266v-.2M411.3 267.8v.2M411.5 268v-.2M411.3 267.2v.4M411.5 267.7v-.5M411.3 266.5v.4M411.5 267v-.4M411.3 266v.4M411.5 266.4v-.4M411.3 265.2v.4M411.5 265.7v-.2M411 267.8v-.2M410.7 267.5v.2M410.7 267v.4M411 267.3v-.2M410.7 266.2v.4M411 266.7v-.4M410.7 265.6v.5M411 266v-.4M410.7 265v.4M411 265.4v-.4M410.4 267.5v-.2M410.2 266.5v.4M410.4 267v-.4M410.2 266v.4M410.4 266.4v-.4M410.2 265.2v.4M410.4 265.7v-.4M410.2 264.6v.4M410.4 265v-.4M409.8 267.2v-.2M409.6 266.2v.4M409.8 266.7v-.4M409.6 265.6v.5M409.8 266v-.4M409.6 265v.4M409.8 265.4v-.4M409.6 264.3v.5M409.8 264.8v-.4M409 266.5v.2M409.3 266.8v-.2M409 266v.4M409.3 266.4v-.4M409 265.2v.4M409.3 265.7v-.4M409 264.6v.4M409.3 265v-.4M409 264v.4M409.3 264.4v-.4M408.7 266.5v-.2M408.5 266.2v.2M408.5 265.6v.5M408.7 266v-.4M408.5 265v.4M408.7 265.4v-.4M408.5 264.3v.5M408.7 264.8v-.4M408.5 263.6v.4M408.7 264v-.2M408 266.2v-.2M408 265.2v.4M408 265.7v-.4M408 264.6v.4M408 265v-.4M408 264v.4M408 264.4v-.4M408 263.6v.2M408 263.8v-.2M407.6 266v-.4M407.4 265v.4M407.6 265.4v-.4M407.4 264.3v.5M407.6 264.8v-.4M407.4 263.7v.2M407.6 264v-.2M406.8 265.2v.2M407 265.5v-.2M406.8 264.6v.4M407 265v-.4M406.8 264v.4M407 264.4v-.4M406.5 265.2v-.2M406.2 264.3v.5M406.5 264.8v-.4M406.2 263.8v.2M406.5 264v-.2M405.7 264.6v.2M406 265v-.4M405.7 264.2v.2M406 264.4v-.4M209.6 496.6l-.4.2M209.3 496.8l.3-.2 1-1 1-1.8v-4.4l-1-2.6-.6-1.8-.8-1.3-.2-.2M205 486l.8 1.4.7 1.8.8 2.6.2 2.4-.2 2-.3.7M45 393.7h.2M209 483.5l8.8-5 8.7-5 4.8-3 .6-.2 7.7-4.5 8.7-5 8.6-5 8.7-5 3.6-2 2.8-1.7M490.4 321h.2M205 486l4-2.4M495 318.4l2-1 .2-.3 4.8-3.5M502 313.5l2.8-6.3-2.8-6.2M38 398.4v.4L35 405l2.8 6.4M43.5 415l5 3.3L57 423l2.4 1.6 8 4.5 1.3 1 .6.3M138.6 470.3l3.2 1.8 1.2.8.6.3 3.2 2 1.2.7.6.3 3 1.7.2.2 1.2.6.5.3 3.3 1.8 1 .6.7.4 3.2 1.8.7.4.5.3.5.3 3 1.6 8 4 9.8 1.4h1l2.4-.2M194.5 490.4l2.5-.4 7.7-4M88.4 449.5l.4-.2M88.2 449.5l-.4 1 .4 1.6v.3l.3.3.6 1 1.3.5h.8M91.2 451.2l-.4-.5-.2-.3-.3-.4-.5-.3-.7-.4-.8.2" stroke-linecap="round" stroke-linejoin="round"/>
  <path fill="none" stroke="#0091EA" d="M90 450.7v1l.6.5h.2-.7v1M90 453l-.5-.8-.7-.3M89.5 451.5l-.6.4h-.2l.3-.6-.2-1 .7.6M89.5 451l.5-.3" stroke-linecap="round" stroke-linejoin="round"/>
  <path fill="none" stroke="#0091EA" d="M90.5 452.2l-.3-.4-.7-.3.4-.6M365.5 401.3h-.4M365 401.3l-.6.6-.3.3-.2 1.2v.3M56.7 435.2v-.2l.2-.2V434.2l.2-1v-.8M57.2 432.5v-1.2H57l-.4-2v-.2l-.4-.8M56.2 428.2l-.4-1-1.2-1-1-.4H53l-1.3.3M111.7 466h-.3.2v-.2M111.8 464l-.2-1.2v-.3l-.7-1.3M111 461.2l-.4-1-1.5-.7-.4-.3-2-1-3.3-2-2-1.2-3.3-2-2-1-1 .4M146.7 484v-.2M158 490l-.2-.2v-.2h-.2M157.4 489.7l-.2-.2v-.3h-.2v-.4M157.4 490.4l-.2-.2v-.2h-.2v-.5M156.8 489.3l-.2-.2v.2-.2h-.2v-.4M156.8 490h-.2v-.2l-.2-.2v-.3M156.8 490.7h-.2v-.2M136.5 477.3v.2M136.4 478v.2M157.8 491v-.2M405.5 264.6v-.3.2M406.6 265.3h.2v.2h.2l.4.2.2.2h.3v.2h.3l.2.2h.2v.2h.3l.2.2h.2l.2.2h.2v.2h.4v.2h.2l.3.3h.2v.2h.5v.2h.4v.2h.2l.2.2h.2v.2h.2l.2.2h.2v.2h.3l.2.2h.2v.2h.2l.2.2h.3v.2h.2l.2.3h.4v.2h.2v.2h.2l.4.2h.2l.3.2v.2h.2l.3.2h.2v.2h.3l.2.2h.2l.2.2h.2v.2h.4v.2h.2l.3.3h.2l.3.2h.2v.2h.4v.2h.2l.2.2h.2v.2h.2l.2.2h.2v.2h.3l.2.2h.2v.2h.2l.2.2h.3v.2h.2v.2h.4v.2h.2l.2.2h.2v.2h.4v.2H426M499.5 328.8l-1.4 1-2.5 1.7h-.2M91.2 454v.2M91.4 452.4v-.3l-.2-.5v-.5l-.4-.4-.2-.3M117.8 467.7l-.2-1v-.4l-.6-.7M434.2 359.8l-.8 1.4v.3l-.2.4v.6M138.4 479.8v-.7h-.2v-.5l-.2-.2v-.2l-.4-.2M133.4 477v-.8l-.2-.4v-.2l-.2-.2-.3-.4h-.2v-.2" stroke-linecap="round" stroke-linejoin="round"/>
  <path fill="none" stroke="#0091EA" d="M158.3 491.2v-.7l-.2-.4v-.2l-.2-.3v-.2h-.2l-.2-.3M148.4 485.5v-.3l-.2-.2v-.7l-.3-.3h-.2v-.2l-.3-.3M143.4 482.6v-.5l-.2-.3v-.2l-.2-.3-.2-.2-.2-.3M153.3 488.4v-.5l-.2-.4v-.5l-.3-.3-.2-.3M64 437v-1.4l-.3-.2-.2-.3h-.2v-.2M409.8 265.3v-.2.2M409.8 264.7v-.2M409.2 265.7v-.2M409.2 265v-.2M409.2 264.4v-.2M408.7 265.3v-.2.2M408.7 264.7v-.2M408 265.7v-.2M408 265v-.2M408 264.4v-.2M407.6 265.3v-.2.2M407.6 264v-.2M407 264.4v-.2M37.4 424.5l-1.4-1-.6-.8-.4-1-2.3-4.8-1.5-5 1.6-5 2-4.5.5-1.2.7-1 2-1.5M39.4 397.5l.8-.6 1-.7 1-.8 1.3-.8 1.3-.8M42 396l1-.8 1-.7M45.3 393.8l1-.6 2-1.3M44 394.5l1.3-.7M43.5 395.6h-.2M45.7 394.2l-2.2 1.4M45.8 394v.2" stroke-linecap="round" stroke-linejoin="round"/>
  <path fill="none" stroke="#0091EA" d="M45.2 393.7l2-1.2 1.8-1M38 411.4l5.5 3.6M49.3 429.7v.4l.2.6M49.2 429.5v.2M49.4 391.3h.2l8.7-5 8.6-5 8.6-5 8.7-5 8.6-5 8.6-5 8.6-5 8.7-5 8.6-5 8.6-5 8.7-5 8.5-5 8.7-5 8.7-5 8.5-5 8.7-5 8.6-5 8.7-5 8.7-5 8.6-5 9-5.2M48.4 392l1-.7M40.2 410l5.3 3.4" stroke-linecap="round" stroke-linejoin="round"/>
  <path fill="none" stroke="#0091EA" d="M49.3 391.3l1-.5 2-1 8.5-5 8.7-5 8.7-5 8.6-5 8.7-5 8.6-5 1-.6 8.6-5 8.7-5 8.7-5 8.6-5 8.7-5 8.6-5 8.6-5 8.7-5 8.6-5 1.4-1 6.6-3.7 8.7-5 1.2-.7 1-.7 2-1 8.7-5 2-1 8.5-5 7.3-4.3 1.2-.7M47.8 393h-.2M50 391.7l-2.2 1.2M52.4 434.2l-4-2.3-.7-.5-8-5.3-2.3-1.7M52.7 434.4h-.2v-.2M57.2 436H56l-1.3-.8-.7-.4-1-.7-1-.7-1-.8-.8-1-.6-.8-.2-.6M62 434.6v.2l.2.2v.2h.2v.2M62.6 434.2h-.8M62 434.2h.2v.2l.2.2M62.3 434.8l-.2-.3v-.2M62.3 435.5l-.2-.3M63 436.6l-.2-.2v-.2h-.2v-.5M63 436v-.2h-.2v-.2h-.2V435M63 435h-.2v-.2h-.2v-.5" stroke-linecap="round" stroke-linejoin="round"/>
  <path fill="none" stroke="#0091EA" d="M62.6 435.6v.4h.2v.2h.2v.2M62.6 435v.2l.2.2.2.2v.2M62.6 434.2v.4h.2v.2h.2v.2M63.2 437v-.2" stroke-linecap="round" stroke-linejoin="round"/>
  <path fill="none" stroke="#0091EA" d="M63.6 437v-.2h-.2v-.2H63v-.4M63.6 436.2l-.3-.3v-.4H63v-.2M63.6 435.5l-.3-.3v-.2l-.2-.2v-.2" stroke-linecap="round" stroke-linejoin="round"/>
  <path fill="none" stroke="#0091EA" d="M63.2 436.7v.2l.2.2M63.2 436v.2l.2.3.2.2M63.2 435.3v.2l.2.3.2.2M63.5 435v.3h.2M63.8 437.5v-.4M64.2 437.3v-.2h-.3l-.2-.2v-.4M64 436.4v-.2h-.2v-.6" stroke-linecap="round" stroke-linejoin="round"/>
  <path fill="none" stroke="#0091EA" d="M63.8 437v.2l.2.2v.2M63.8 436.3v.2l.2.2v.2h.2M63.8 435.6v.2M64 437.8v-.4h.2M86.7 386.6l.8 1M89.8 449.3H88.5M90.3 452.3h.2M91.2 454v-.4l.3-.6v-.5M94 451.5h.2M103.8 447.4l3 1.8M112 467l-1 .3-1.6-1-.7-.3-1.6-1-3.6-2-1.6-1-3.7-2.2-1.3-.8-1-.5-1.3-1.5-1-1-.2-.6M113.5 269.6V292.5M113.5 269.4v.2M113.5 269.4v.2M113.5 244v23M113.5 241.5v.2M113.5 218.7v22.7M113.5 218.5v.2M113.5 218.5v.2M113.5 216v.3M113.5 193.3V216M113.5 193v.3M113.5 193v.3M113.5 190.6v.2M113.5 167.8v22.9M113.5 167.6v.2M113.5 167.6v.2M113.5 151.8V165.4M111.2 442.4l-.4-.4M117 285.8v-14.4M117 263v-17M117 237.6v-17.2M117 212.2V195M117 187.7v-18M117 162.2v-8.6M116.3 464.5H114.7M117.7 469.3v-.5l.2-.5-.2-.5M118 446h-.8M131.4 474.3l.2.3M132 474.2H131M131.4 475l.2.3M131.5 474.7l-.2-.2M131.7 474.8v.3l.2.2v.2l.2.2M131.7 475.5v.3h.2v.3l.2.3" stroke-linecap="round" stroke-linejoin="round"/>
  <path fill="none" stroke="#0091EA" d="M132 476.5v-.3h-.2v-.2l-.2-.3M132 475.8v-.3h-.2v-.2l-.2-.3M132 475v-.2h-.2v-.2l-.2-.3M131.8 474.2v.2l.2.3.2.2M132.3 476.6v.3h.2M132.4 476v.2l.2.3.2.2M132.4 475.2v.3l.2.2.2.3M132.7 476.8l-.2-.2-.2-.3v-.3" stroke-linecap="round" stroke-linejoin="round"/>
  <path fill="none" stroke="#0091EA" d="M132.7 476h-.2v-.2l-.2-.2v-.3M132.7 475.4l-.2-.2-.2-.3v-.4M132.4 474.7l.2.3.2.3M133 477.4l-.2-.3M133 477v.2l.2.3M133 476.3v.2l.2.3.2.2M133 475.5v.3l.2.3v.2" stroke-linecap="round" stroke-linejoin="round"/>
  <path fill="none" stroke="#0091EA" d="M133.3 477.2l-.2-.3v-.3l-.2-.3M133.3 476.5l-.2-.3v-.2l-.2-.3M133.3 478v-.5h.2v-.2M98.2 380l8.6-5 8.7-5 8.7-5 1.3-.8M79.7 390.6l7-4M137 477h-1M136.4 477.6l-.2-.3M136.6 478v.2h-.2M136.7 478.4v.3l.2.2v.2h.2M136.7 477.7v.2l.2.2v.2h.2M137 479.3l-.2-.2-.2-.2v-.3M137 478.6l-.2-.3-.2-.2v-.2M137 478v-.2l-.2-.2-.2-.2v-.3" stroke-linecap="round" stroke-linejoin="round"/>
  <path fill="none" stroke="#0091EA" d="M136.7 477v.2l.2.3v.2h.2M137.3 479.5v.2M137.3 478.7v.3l.2.3.2.2M137.3 478v.3l.2.3.2.2" stroke-linecap="round" stroke-linejoin="round"/>
  <path fill="none" stroke="#0091EA" d="M137.6 479.7l-.2-.3v-.2h-.2v-.4M137.6 479l-.2-.3v-.2h-.2v-.4M137.6 478.3l-.2-.3v-.2h-.2v-.4" stroke-linecap="round" stroke-linejoin="round"/>
  <path fill="none" stroke="#0091EA" d="M137.4 477.5v.4h.3v.2M137.5 284.7v20.8M137.5 280.7v.7M137.5 259.3V280.7M137.5 233.8V256M137.5 230v.6M137.5 208.4V230M137.5 183v21.4M137.5 179v.7M137.5 158.5V179M138 480.3l-.2-.2M138 479.8v.7M138 479V479.7l.3.3M138 478.4v.5h.3" stroke-linecap="round" stroke-linejoin="round"/>
  <path fill="none" stroke="#0091EA" d="M138.2 480l-.2-.2v-.3h-.2v-.3M138.2 479.3l-.2-.3v-.2h-.2v-.3M138.2 478.5l-.2-.2M138.3 481V480.3l.2-.2M135.8 282.3l-9 4.3-3.7 1.8-6 3h-.3l-.2.2-.4.2M135.8 256.8l-1.5.8-9 4.3-2.2 1-6 3M117 240.5h-.3l-.2.2-.4.2M123 237.5l-6 3M135.8 231.4l-1.5.7M117 215l-.3.2h-.2l-.4.3M135.8 206l-1.5.7-9 4.3-2.2 1-6 3M117 189.6l-.3.2h-.2l-.4.2M135.8 180.5l-1.5.8-9 4.3-2.2 1-6 3M117 164.2h-.3l-.2.2-.4.2M130.4 157.7l-7.3 3.5-6 3M123.5 275.2l-2.3 3.7-.4.6-3.8 6.2M131.4 262.2l-3 5-3.3 5.5M135 256.4l-.7 1.2M123.5 249.7l-5.2 8.6-1.3 2M131.4 236.8l-5.2 8.5-1 2M135 231l-.7 1M123.5 224.3l-5.2 8.5-1.3 2M131.4 211.3l-5.2 8.6-1 1.8M135 205.5l-.7 1.2M123.5 198.8l-5.2 8.6-1.3 2M131.4 186l-5.2 8.4-1 2M135 180l-.7 1.3M123.5 173.4l-5.2 8.5-1.3 2M131.4 160.4l-5.2 8.6-1 2M119.5 154.5l-2.5 4M138.4 480.4" stroke-linecap="round" stroke-linejoin="round"/>
  <path fill="none" stroke="#0091EA" d="M115.3 270.4l1.2.7.5.4 2 1.2 4.5 2.6 2 1.2.5.2 5.8 3.4.7.3 2.3 1.4 1 .6M131.8 254.5l3 1.7.2.2.8.4M115.3 245l1.2.7.5.3 6.5 3.7 2.6 1.5M115.3 219.5l1.2.7.5.3 6.5 3.8 2.6 1.5 5.8 3.3 3 1.8h.2l.8.6M115.3 194l1.2.8.5.3 6.5 3.8 2.6 1.5 5.8 3.4 3 1.6.2.2.8.4M115.3 168.7l1.2.6.5.4 6.5 3.7 2.6 1.5 5.8 3.2 3 1.7h.2l.8.5" stroke-linecap="round" stroke-linejoin="round"/>
  <path fill="none" stroke="#0091EA" d="M131.8 280l-8.6 5-3.4 2M137.5 276.7l-2.7 1.6M131.8 254.5l-8.6 5-3.4 2M137.5 251.3l-2.7 1.5M131.8 229l-8.6 5-3.4 2M137.5 225.8l-2.7 1.6M131.8 203.7l-8.6 5-3.4 2M131.8 178.2l-8.6 5-3.4 2M137.5 175l-2.7 1.5M125 156.7l-5.2 3M118 268.6l9-4.3 4.4-2 5-2.5 1-.5M118 243.2l9-4.4 4.4-2 5-2.4M118 217.8l9-4.4 4.4-2 5-2.5 1-.6M118 192.3l9-4.3 4.4-2 5-2.5M118 167l9-4.5 4.4-2 4.5-2.2M119 272.6l-2 1.2M128.3 267.3L122 271M137.5 262l-4 2.3" stroke-linecap="round" stroke-linejoin="round"/>
  <path fill="none" stroke="#0091EA" d="M137.4 279.8l-2-1.2-.6-.3-6-3.4-.2-.3-1-.6-2.5-1.3-3-1.8-4-2.4M137.4 254.3l-1-.5-1.6-1-7.2-4-2.5-1.6-7-4M137.4 229l-1-.6-1.6-1-7.2-4.2-2.5-1.4-7-4M137.4 203.5l-1-.5-1.6-1-7.2-4.2-2.5-1.5-7-4M137.4 178l-1-.5-1.6-1-7.2-4-2.5-1.6-7-4M141 282V280M141 302.3V283M141 255v-.2M141 256.4V255M141 277.5v-19.7M141 231v-1.5M141 252V232M141 205.5V204M141 226.6v-19.9M141 178.7v-.2M141 180V179M141 201.2v-19.9M141 175.7v-16.8" stroke-linecap="round" stroke-linejoin="round"/>
  <path fill="none" stroke="#0091EA" d="M127.6 274l5.2-8.4.8-1.3 2.7-4.5M119.8 287l5.2-8.6 1-1.8M127.6 248.7l5.2-8.6 3.5-5.6M117 266l2.8-4.5 5.2-8.5 1-1.8M127.6 223.2l5.2-8.5 3.5-5.8M117 240.4l2.8-4.4 5.2-8.5 1-1.7M127.6 197.8l5.2-8.5 3.5-5.8M117 215l2.8-4.4 5.2-8.5 1-1.7M127.6 172.4l5.2-8.6 3.4-5.5M117 189.6l2.8-4.4 5.2-8.6 1-1.7M117 164l2.8-4.3 2.5-4M123 263l8.8-5 3-1.8M123 237.5l8.8-5 3-1.7M123 212l8.8-5 3-1.7M123 186.6l8.8-5 3-1.7M123 161.2l6.4-3.6M142 480h-1.2M141.2 480l.2.2M141.4 273.2V256.6M141.4 247.8v-16.5M141.4 222.3v-16.5M141.3 480.4l-.2-.3M142 482.2l-.3-.3v-.2l-.2-.2v-.3M142 481.5l-.3-.3v-.2l-.2-.2v-.2M142 480.8v-.2h-.3v-.4h-.2v-.3" stroke-linecap="round" stroke-linejoin="round"/>
  <path fill="none" stroke="#0091EA" d="M141.6 481.2v.3l.2.2.2.3M141.6 480.5v.3l.2.2.2.3M141.6 480v.2h.2v.2l.2.2M140.8 355.4l1 1M142.6 482.5l-.3-.2v-.3h-.2v-.3M142.6 481.8l-.3-.3v-.2h-.2v-.3M142.6 481l-.3-.2v-.2h-.2v-.3M142.2 482.3v.2l.2.2" stroke-linecap="round" stroke-linejoin="round"/>
  <path fill="none" stroke="#0091EA" d="M142.2 481.6v.2l.2.2v.2h.2v.2M142.2 481v.2l.2.2.2.2M142.3 480.4v.3h.2v.2h.2M143 483.3l-.2-.2v-.2M143.2 483v-.2l-.3-.2-.2-.2v-.4M143.2 482.2l-.3-.3v-.2h-.2v-.5M142.8 482.7v.2h.2v.2" stroke-linecap="round" stroke-linejoin="round"/>
  <path fill="none" stroke="#0091EA" d="M142.8 482v.2h.2v.2l.2.3M142.8 481.2v.3h.2v.2l.2.3M143 481.4v-.2l-.2-.2M143.2 483.7v-.2l.2-.2v-.3M143.4 483.3v-.2M146.2 483l.2.2M146.8 482.8h-.7M147 484.3h-.2l-.2-.3v-.4h-.2M147 483.6h-.2l-.2-.3v-.2l-.2-.2M146.5 484v.3h.2v.3l.2.2v.2" stroke-linecap="round" stroke-linejoin="round"/>
  <path fill="none" stroke="#0091EA" d="M146.5 483.4v.2h.2v.2l.2.3v.2M146.6 482.8v.4h.2v.2h.2M147 485h-.2l-.2-.3v-.2M147 483l-.2-.2M147.5 485.4v-.2h-.2v-.2h-.2v-.5M147.5 484.7v-.2h-.2v-.2h-.2v-.5M147.5 484v-.2h-.2v-.2h-.2v-.5M147.2 485.2v.2" stroke-linecap="round" stroke-linejoin="round"/>
  <path fill="none" stroke="#0091EA" d="M147.2 484.5v.4h.2l.2.2M147.2 483.7v.4h.2v.2h.2v.2M147.2 483.2v.2h.2v.2l.2.2M148 486.2h-.2v-.4h-.2v-.2M148 485.7v-.2h-.2v-.4h-.2M148 485v-.3h-.2v-.4h-.2" stroke-linecap="round" stroke-linejoin="round"/>
  <path fill="none" stroke="#0091EA" d="M147.8 485.5v.4h.2M147.8 484.8v.4h.2v.2l.2.2M147.8 484v.6h.2v.2h.2M123 394.3l-8.7-5-8.6-5-7.5-4.3-4.7-2.7M148 484.3v-.3h-.2v-.2M148.2 486.5v-.3h.2v-.2M148.3 486.2v-.2M148.4 485.6v-.2l-.2-.2M151.8 485.7H151M151.8 487.2v-.2h-.2v-.2l-.2-.3v-.2M151.8 486.5v-.2h-.2v-.2l-.2-.2M120.4 459.8l8.7 5 8.7 5 .3.2M72.5 432l8.7 5 8.7 5 8.5 5 2.8 1.7 1 .6M151.5 487v.3h.2v.4h.3" stroke-linecap="round" stroke-linejoin="round"/>
  <path fill="none" stroke="#0091EA" d="M151.5 486.2v.4h.2v.2l.3.3M151.5 485.7v.2h.2v.2h.2v.2M151.8 488v-.2l-.2-.2v-.2M152.4 488.2l-.2-.2v-.2l-.2-.2v-.2M152.4 487.5l-.2-.3v-.2h-.2v-.2M152.4 486.8v-.2h-.2v-.2l-.2-.3M152 488l.2.2" stroke-linecap="round" stroke-linejoin="round"/>
  <path fill="none" stroke="#0091EA" d="M152 487.3l.2.2v.4h.2l.2.2M152 486.6l.2.2v.4h.2l.2.2M152 486h.2v.4h.2v.2h.2M152.8 489v-.2l-.2-.2M153 488.6v-.2h-.2v-.2l-.2-.3v-.3M153 488v-.3h-.2v-.2l-.2-.3v-.2M153 487.2v-.2h-.2v-.4M152.7 488.4v.2l.2.2" stroke-linecap="round" stroke-linejoin="round"/>
  <path fill="none" stroke="#0091EA" d="M152.7 487.7v.3h.2v.4h.2M152.7 487v.3h.2v.4h.2M153.2 489.5v-.4h.2v-.2M153.3 489v-.2M153.4 488.6l-.2-.3v-.2M141.4 153.4l1.6-.2M156.8 488.6H156M156.4 489.8v.4M156.4 489v.4M156.5 488.6v.2h.2v.2l.2.2M156.7 490.4l.2.2M156.7 489.7l.2.2M157.4 491h-.2v-.2h-.2V490M157 491" stroke-linecap="round" stroke-linejoin="round"/>
  <path fill="none" stroke="#0091EA" d="M157 490.2l.2.3v.2h.2v.3M157 489.4v.2l.2.2v.2h.2v.3M157.2 489v.4h.2v.2M157.8 492v-.3h-.2v-.3M158 491.4h-.2v-.4h-.2v-.3M158 490.7h-.2v-.4h-.2v-.3" stroke-linecap="round" stroke-linejoin="round"/>
  <path fill="none" stroke="#0091EA" d="M157.7 491.2v.4l.2.2.2.3M157.7 490.5v.4M157.7 489.8v.4l.2.2.2.3M158 491v.2l.2.2M158.2 492v-.2M158 492.3h.2v-.4M158.4 491.5v-.2h-.2v-.2M158.3 491.6v.2M158 491.7h.2M143.3 483v.2M162 270.8v19.5M162 264v.7M162 245.4V264M162 220v19.3M162 213v.8M162 194.5V213M162 187.6v.8M162 169v18.6M162 162.2v.8M162 154.5v7.7M159 269.7l-.8 1.4-1 1.8-2.3 4-.3.2-3.4 5.5-1 1.4-1.4 2.4-5.3 8.6-2.8 4.6M159 244.3l-1.8 3-5.2 8.6-1.6 2.5-1.5 2.5-2.2 3.5-3.4 5.5-.2.3-1.8 3-.4.7M159 219l-1.8 3-5.2 8.5-1.6 2.6-1.5 2.6-5.3 8.5-2.3 3.8-.4.7v.2M159 193.4l-1.8 3-5.2 8.7-1.6 2.6-1.5 2.5-5.3 8.7-2.3 3.6-.4.8v.2M159 168l-1.8 3-5.2 8.6-1.6 2.6-1.5 2.5-5.3 8.5-2.3 3.7-.4.7M149.8 157.8l-1 1.4-5 8.6-2.4 3.7-.4.7v.2M162 290.2l-.5.2-3 1.7-8.6 5-6.4 3.7M162 264.7l-.5.2-3 1.6-4 2.4-6.5 3.7-.3.2-4 2.3M162 239.3l-.5.2-3 1.7-8.6 5-6.4 3.6M158.6 215.7l-8.7 5-6.4 3.7M158.6 190.3l-8.7 5-6.4 3.6M162 188.4l-.5.2M161.5 163.2l-3 1.7-8.6 5-6.4 3.5M151.4 262.5l7.2 4" stroke-linecap="round" stroke-linejoin="round"/>
  <path fill="none" stroke="#0091EA" d="M141 256.4l.4.3 7.5 4.3M151.4 237l7.2 4.2M141 231l.4.3 7.5 4.3M151.4 211.6l7.2 4M141 205.5l.4.3 7.5 4.3M151.4 186.2l7.2 4M141 180l.4.4 7.5 4.3M151.4 160.7l7.2 4.2M147 158l2 1.3M141 305.2l2.6-4.5 5.2-8.5 2.6-4.3 1.6-2.6.8-1.4 3.4-5.6.2-.3 3.4-5.4 1-1.8.3-.3.4-.6.3-.5.2-.4v-.3l.5-.5M141.5 278.8l1-1.5.4-.8.6-1.2 2-3.5.3-.3 3.3-5.6 2-3.5 1.7-2.5 5.2-8.6 3.7-6v-.4l.4-.5.3-.5.2-.3v-.4l.5-.6M141.5 253.3l1.4-2.2.6-1.2 5.2-8.5 2.6-4.3 1.6-2.5 5.2-8.5 3.7-6v-.4l.4-.6.3-.4.2-.4v-.4l.5-.5M141.5 228l1.4-2.4.6-1.2 5.2-8.6 2.6-4.2 1.6-2.5 5.2-8.5 3.7-6v-.3l.4-.6.3-.4.2-.4v-.4l.5-.5M141.5 202.5l1.4-2.3.6-1.3 5.2-8.6 2.6-4.2 1.6-2.6 5.2-8.5 3.7-6v-.3l.4-.6.3-.3.2-.4v-.3l.5-.6M141.5 177l1.4-2.2.6-1.3 5.2-8.5 2.6-4.3 1.3-2M143 279.7l2-1 7-3.3.3-.2 5-2.4M143 254.2l9-4.3 5.2-2.6M143 228.8l9-4.4 5.2-2.4M143 203.4l9-4.4 5.2-2.5M143 178l9-4.4 5.2-2.5M141 280.2l.4-.3 1-.7 1.7-1 6.6-3.7.4-.2 6.5-3.7 1.6-1 2.5-1.4.4-.2.4-.2M141.4 254.5l1-.6 8.7-5 8-4.7 2.5-1.4.4-.3.4-.3M141 254.8l.4-.3M141.4 229l1-.5 8.7-5 8-4.6 2.5-1.6.4-.2.4-.3M141 229.4v-.2l.4-.2M141.4 203.6l1-.6 8.7-5 8-4.6 2.5-1.4.4-.2.4-.3M141 204v-.2l.4-.2M141.4 178.2l1-.6 8.7-5 8-4.6 2.5-1.4.4-.2.4-.4M141 178.5v-.2h.4M165.4 267v-.7M165.4 290.6v-21.1M165.4 241.7v-.8M165.4 265.2V244M165.4 266.3v-.4M165.4 267v-.7M165.4 216.2v-.7M165.4 239.8v-21.3M165.4 241.7v-1.2M165.4 190.8v-.8M165.4 214.3V193M165.4 216.2V215M165.4 165.4v-.8M165.4 189v-21.4M165.4 190.8v-1.2M165.4 163.5v-8.3M165.4 164.6v-.5M165.4 165.4v-.8M150.4 207.6l-7.3-4.2M161.5 214l-8.5-5M150.4 182.2L143 178M161.5 188.6l-8.5-5M161.5 163.2l-8.3-4.8M150.4 258.5l-7.3-4.3M161.5 265l-8.5-5M150.4 233L143 229M161.5 239.5l-8.5-5M163.3 154l-1 .3-.4.2-6.2 2.4M166.8 500l-5.2-2.8-.4-.2-2.5-1.5-.5-.3-2-1-.5-.4-2-1.2-.5-.2-2-1.2-.5-.3-2-1.2-.4-.3-2-1.2-.5-.2-2-1-.5-.4-2-1-.5-.4-2-1.2-.5-.2-2-1.2-.5-.3-2-1.2h-.4l-1.7-1-8.7-5-.6-.4-2-1.2-.5-.3-2-1-1-.5-3.8-2.2-.6-.4-2.6-1.6-4.3-2.5-1-.6-4.3-2.5-1-.7-2.6-1.5-.6-.3-.8-.5-4-2.3-.4-.2-2-1.2-8.6-5-8.6-5-1-.6-4.2-2.3-.4-.3-1.7-1-.8-.3L59 438h-.3L56 436l-.5-.2-.3-.2-2.5-1.4M168 373v-.3M169.6 401.6v-3M171 399.2v-.7M184 489.2h.2M186.2 379.7V377M184 166h.2M186.4 141.4l-.7 10-.7 10v1.6M172.5 374.6l-2 1M185 163l-8.8-5-8.7-5-.7-.4-.6-.3M188.5 153.5l.7-10 .2-2M190.3 377.3v-.2M191 392.5v3M175.6 378.7l2.4-1.4h.2M146.8 264.5l-5.4-3M154.5 269l-5.2-3M162 273.2l-1.2-.6M195 324l.8 1M191 488.5h.3M194.3 490.4h.2M187.8 491.3l6.5-1M197 133.7v-.2M175.5 144l-8.8 4.7-1.3.7-.6.3-1.8 1M194.6 133.7l-5.6 3-.5.3-.4.2-.3.2-2 1-5 2.7M186.2 378.5l-3 1.8-2.6 1.4M196 373l-1 .4-1.4 1M173.8 121.7l8.7 5 2.2 1.3 1.6 1 2.7 1.5" stroke-linecap="round" stroke-linejoin="round"/>
  <path fill="none" stroke="#0091EA" d="M166.2 152.3l2.8-1.5 8.8-4.8 8.6-4.6 1.5-.8 1.5-1 1.5-.7 3.8-2M190.2 326.8l4.8-2.7M152.3 348.7l8.7-5 8.6-5 8.7-5 1.3-.7M136 358l4.8-2.6M188.6 161.4l3.6-9.3 2.8-7.3 1-2.8 2.4-6M197.6 130.6h-.2M174.6 361.6l-8.7-5-8.8-5-5-3-4.6-2.6M202 501h-.3l-3.6 1.7-1.8.8-5.2.8-6 1-6.4-1-4.7-.8-2.4-1.2-4-2-.8-.4M188 383.4l-2.6 1.5M194.2 379.8l-1.5 1M200.5 376.2l-.3.2-.5.2M204.7 486h.2M205.2 499v.2l-2.5 1.4-.7.3M205.5 499h-.3v.2M207 497l-.5 1M192.6 386.7l-3 1.7M205.2 379.4l-1.8 1M208.2 180h.2M186.2 167.2l8.7 5 8.5 5 2.6 1.5h.3M208.5 154v.4l-.8 10-.7 10v1.3M209.2 496.8l-2.6 1.4-1 .6M207 175.8l-8.8-5-8.6-5-.5-.3-.8-.5" stroke-linecap="round" stroke-linejoin="round"/>
  <path fill="none" stroke="#0091EA" d="M195 144.7l8.7 5 3.3 2M189.4 141.4l3 1.8M198.7 136l5.8 8.3 3 4 1 1.6.4.6M210.5 166.2l.8-10v-2M193.5 140.4L191 139M207.4 148.4l-8.7-5-2.6-1.5M189 165.5l8.8-5 8.7-5 2-1M212.7 346.2v-.3M212.7 391.6v-3M199 131.5l-.2-.4M211.4 149l-5.7-8-1-1.4M164 416l-5 3M181.7 399l2.3-1.4M219 146.4v-.2" stroke-linecap="round" stroke-linejoin="round"/>
  <path fill="none" stroke="#0091EA" d="M216.6 146.4l-5 2.8-1 .5-.5.2h-.3l-.8.6-1.3.6-.7.4-8.8 4.7-8.8 4.7-.8.5-.7.3M216 146l-4.6 3M197.8 135.6l.6.3h.3l6 3.6 8.7 5 2.7 1.5.6.4M188 165h.2l8.8-4.7 8.8-4.8 2.7-1.4 1.5-.7.7-.4.8-.5.4-.3 1-.5 4-2M210.6 174.2l3.6-9.4 2.8-7.4 1-2.8 2.4-6M219.5 143.3l-8.7-5-8.7-5-3-1.8M194.5 435.6l4-2.3M176 446.3l6.6-3.8M174.2 422l-5 3M227.4 369.3V372.3M228.8 190v.2M228 191.4h.3M208.2 180l8 4.6 8.8 5 3 1.8M230.5 166.8v.3l-.7 9.8-.7 10v1.6M231.8 207v121.4M229 188.5l-8.7-5-1-.6-8-4.8-1-.5" stroke-linecap="round" stroke-linejoin="round"/>
  <path fill="none" stroke="#0091EA" d="M217 157.4l8.7 5 3.3 2M211.4 154l3 2M229.4 161l1 1.6M232.6 179l.3-4 .5-8M215.5 153l-2.5-1.3M229.4 161l-8.7-5-2.6-1.4M211.2 178.2l8.6-5 8.7-5 2-1M221 144.2l-.2-.4M233.4 161.8l-5.7-8.2-1-1.3M236.5 325.8V210.2M237 351.2v-.8M236.5 283.3l.8-.5 4.7-2.7M233 458l-8.5-5-8.7-5-8.6-5-8.7-5-4-2.4-8.6-5h-.2M229.8 176.8l-8.7 5-1.7 1M234.4 174.2l-1.5 1M241 159" stroke-linecap="round" stroke-linejoin="round"/>
  <path fill="none" stroke="#0091EA" d="M238.6 159l-5 3-1 .4-.5.2-.2.2-1 .5-1 .6-.8.3-8.8 4.7-8.8 4.8-.8.4-.7.4M238 158.8l-4.6 3M219.8 148.3l.6.3.4.2 6 3.5 8.7 5 2.6 1.5M242 286.4v36.1M242 286v.4M242 281v5.1M242 210v71M210 177.8h.3l8.8-4.8 9-4.8 2.5-1.4 1.5-.8.7-.4 1-.4.3-.2 1-.5 4-2.2M232.7 187l3.5-9.5 2.2-5.7.7-1.7 1-2.7 2.4-6M241.5 156l-8.7-5-8.6-5-3-1.8M236.5 304.8l5.5 3.2M246.6 360v-.7M246.8 278.2v-70.8M246.8 283.4v-4.9M246.8 284v-.6M246.8 320V283.8M246.8 310.7l2.2 1.2M249 293l1 .8M203.6 368.5l-3.2 1.8M211.5 364l-.5.2-3.3 2M235.4 350l-2.6 1.6M242 346.3l-3.6 2M230.3 192.7l6 3.5 5.7 3.2 4.8 2.8 3.5 2M252.5 179.5v.3l-.7 10-.3 4-.5 7.3v.2" stroke-linecap="round" stroke-linejoin="round"/>
  <path fill="none" stroke="#0091EA" d="M251 201.2l-4.2-2.4-1-.5-1-.6-2.2-1.3-3.3-2-6-3.4-1-.6M239 170l8.7 5 3.3 2M233.4 167l3 1.6M242.8 161.5l5.7 8.2 3 4 1 1.7M255.2 330.6v-.2M254.6 191.6l.7-10v-1l.2-1M237.6 165.8l-2.6-1.4" stroke-linecap="round" stroke-linejoin="round"/>
  <path fill="none" stroke="#0091EA" d="M251.4 173.8l-8.6-5-2.7-1.5M233.2 191l6.2-3.6 8.7-5 4.5-2.6M228.7 330.3l-8.7-5-8.6-5-5-2.8-4.6-2.7M243.2 157l-.4-.5M255.5 174.5l-5.8-8.2-1-1.3M207.4 372.2l-2 1.2M213 369l-.7.3M219.6 365l-2.2 1.4M226 361.5l-1.3.7M232.6 357.6l-1 .6M239 354l-.7.3M246 350l-2 1M212 375.5l-1.2.6-.6.5M223.7 368.7l-1.7 1M231.3 364.3l-1.5 1M237.7 360.6l-1.5 1M243.7 357.2l-1.5.8M250.4 353.3l-1.4.8-.3.3M262 346.6l-4.7 2.7-1.5 1M246.8 294.2l2.3-1.3" stroke-linecap="round" stroke-linejoin="round"/>
  <path fill="none" stroke="#0091EA" d="M206.5 317.5l8.6-5 8.8-5 8-4.6M236.5 291l5.5-3M262.2 339.8v-.8M260.6 172l-5 2.6-1 .5-.5.3-.2.2-1 .5-1 .6-.8.4-.8.5-8.8 4.7-2 1-6.7 3.7-.7.3M260 171.6l-4.5 3M242 161l.4.3.4.2 6 3.5 8.7 5 2.6 1.6M232 190.5h.3l7-4 9-4.6 4.2-2.5.6-.3 1-.5.7-.3 1-.5.3-.3h.2l.8-.5 4-2.2M258.2 182l-2.8-1.5M251.5 194l-5 2.7-1.6 1M254.7 199.6l3.6-9.3v-.4l2.5-6.4.3-.8 1.2-2.8 2.2-6M263.5 168.7l-8.6-5-8.8-5-3-1.8M263.7 168.8h-.2M266.3 362v3M253.2 357.6l2.3-1.3M248.6 360.2l1.2-.7M234.6 368.4l2.8-1.7M227.4 372.5l4-2.3M221.8 375.7l2.4-1.4M214.7 379.8l2.3-1.3M271 317v2.8M245.5 368l-1.3.7-8.7 5-8.7 5-1 .7M260 359.6l-8.7 5-1.6 1M252.4 205.5l8.7 5 8.8 5 2.6 1.5M274.6 192.3v.2l-.8 10-.7 10v1.4M273 214l-8.7-5-8.6-5-.5-.3-1-.6" stroke-linecap="round" stroke-linejoin="round"/>
  <path fill="none" stroke="#0091EA" d="M261 182.8l8.8 5 3.3 2M255.5 179.6l3 1.7M264.8 174.3l5.8 8 3 4.3 1 1.5M248.7 404.3l4-2.3M228.2 383.8l5.5-3 8.6-5 7-4 2.6-1.6M276.6 204.3l.8-10v-2M259.6 178.6L257 177M273.5 186.6l-8.7-5-2.6-1.6M255.2 203.7l8.7-5 8.6-5 2-1.2M265.2 169.7l-.3-.5M283.7 323.4v-.2M285 184.6v-.2" stroke-linecap="round" stroke-linejoin="round"/>
  <path fill="none" stroke="#0091EA" d="M282.7 184.6l-5 2.7-1 .5-.5.3-.4.2-.8.5-1.2.6-.7.4-8.7 4.8-7 3.7-2.6 1.4-.7.4M282.2 184.3l-4.7 3M285.7 186.3" stroke-linecap="round" stroke-linejoin="round"/>
  <path fill="none" stroke="#0091EA" d="M263.6 173.6l.8.5.4.3 6 3.5 8.7 5 2.7 1.5.5.3M254.3 203l8.8-4.6 9-4.7 2.6-1.4 1.5-.8h.2l.6-.4.8-.4.4-.2h.2l.8-.5v-.2l4-2M276.7 212.3l3.6-9.3 2.8-7.5 1.2-2.7 2.3-6M285.6 181.4l-8.7-5-8.8-5-3-1.7M289.4 328.7v2.9M287.3 426.6l-8.7-5-8.6-5-8.7-5-8.7-5-4-2.3-8.6-5M274.5 218.2l6.8 4 8.6 5 4.2 2.4h.2M274.3 218l.2.2M296.7 244.6V371.3M296.6 205v.2l-.6 8.4-.8 10-.2 3M295 226.6l-8.6-5-2.2-1.2-7-4-.8-.5" stroke-linecap="round" stroke-linejoin="round"/>
  <path fill="none" stroke="#0091EA" d="M283 195.5l8.8 5 3.3 2M277.5 192.3l3 1.8M286.8 187l5.8 8.2 3 4M298.7 217l.3-5.2.5-6.8M281.6 191.3l-2.5-1.5M295.5 199.3l-8.7-5-2.6-1.5M277.3 216.4l8.6-5 8.6-5 2-1.2M286.6 271.2l8.7 5 1.4 1M257.5 331.4l2.5-1.4 8.7-5 8.7-5 8.6-5 .3-.2 8.6-5 1.7-1M287.2 182.4l-.3-.5M299.5 200l-5.7-8.2-1-1.3M301.7 303v-2.7M303 313.4v-.2M246.8 277.4l8.6-5 8.7-5 8.7-5 8.7-5 8.7-5 6.7-3.8M236.5 283.3l5.5-3M301.4 279.8l1.7 1M296 213.6l-8.7 5-3 1.8M301 210.7l-2 1M282.7 322.8l-8.4 4.8M290 318.6l-2.7 1.5M296.7 314.7l-3 1.8M296.7 263.3l-3-1.7M307 248.6V365.7M307 248v.6M307 247.5v.6M306.8 323.7h.2M307 197.3v-.2" stroke-linecap="round" stroke-linejoin="round"/>
  <path fill="none" stroke="#0091EA" d="M304.7 197.3l-5 2.7-1 .6-.5.2-.3.2-1 .4-1.2.7-.7.5-8.7 4.7-8.8 4.7-.8.3-.7.4M304.2 197l-4.7 3M286 186.4l.5.4.3.2 6 3.5 8.7 5 2.7 1.5.5.3M276.2 216h.2l8.8-5 8.8-4.6 2.6-1.4 1.5-.8h.2l.6-.4 1-.5.2-.2h.2l.8-.4 4-2M298.8 225l3.5-9.3 2-5.3.6-1.3.2-.7 1-2.8 2.3-6M307.6 194l-8.7-5-8.7-5-3-1.6M282.8 299l-8.6-5-8.7-5-5-2.8-4.6-2.7M286.3 326.6l-8.6 5-7.4 4.3-8 4.4M287.5 326l-1 .5M306.7 315l-2.5 1.3M311.7 245.4v-.5M311.7 246v-.6M282.3 334.8l-8.6 5-.4.3-4.8 2.8M292.3 329l-3 1.8M304 322.4h-.2M314.8 241.4l1 .6.4.2v.2M296.4 230.8l5 3 5.5 3 4.7 3h.2l.5.3 1 .7.3.2h.4l.2.2.2.2h.2M318.6 217.7v.3l-.7 10-.3 2.7-.4 6v.7l-.2 1v.8" stroke-linecap="round" stroke-linejoin="round"/>
  <path fill="none" stroke="#0091EA" d="M305 248.7l.4-.3.8-.4h.2l.6-.5 4.7-2.7 4.5-2.6M317 239.4l-.3-.2-.4-.2-1-.6-.4-.3h-.2l-3-1.7-1-.5-1-.6-2.3-1.3-3.2-2-5-3-1-.4M305.2 208.3l8.6 5 3.3 2M299.5 205l3 1.8M317.5 212l1 1.5.5.7M314 322.5l2.3-1.4M301.5 329.7l5.5-3.2M287.4 337.8l8.7-5 .7-.3M320.7 229.8v-1l.8-10v-1M303.6 204l-2.5-1.5M317.5 212l-8.6-5-2.8-1.5M299.3 229l5-2.8 8.7-5 5.6-3.2M309.2 195l-.3-.3M321.6 212.7l-5.8-8.2-1-1.3M324.6 311.3v.6M307 332.5l-5.5 3.2M320.4 324.7l-8.7 5M321 324.4l-.6.3M311.7 256.7l1.3-.7M301.4 262.6l5.6-3.2M324.2 232.6l3.6-2 2.7-1.6M316.7 243l-5 3M316.6 240.4l-.2.6" stroke-linecap="round" stroke-linejoin="round"/>
  <path fill="none" stroke="#0091EA" d="M327.3 212.5l-.3.7-1.3 3.5-1 2.8-.4.8-3.2 8.4-.3 1-2.4 6.3v.2l-.3.7-.6 1.3-.2.5v.5h-.2v.4l-.3.4v.4M329.2 210v-.2M326.7 210l-5 2.7-1 .6-.5.2-.3.2-1 .5-1 .6-1 .4-.7.4-9 4.8-3 1.6-5.5 3-.7.4M326.2 209.7l-4.6 3M329.7 330v.5M329 329.7l.7-1.2M308 199.2l.5.3.4.2 6 3.5 8.6 5 2.6 1.5.5.3" stroke-linecap="round" stroke-linejoin="round"/>
  <path fill="none" stroke="#0091EA" d="M316.3 215.6l-8.7-5-2.7-1.5M324.3 220.3l-2.8-1.6M317.7 230.7l-6.2 3.5-1.6 1M321 228.7l-.2.2M298.2 228.7h.2l6-3.3 8.8-4.8 5.4-3 .6-.2 1-.5v-.2l.6-.3 1-.4.3-.2h.2l.8-.5h.2l3.8-2M331 228.8l.4-.2 3-1.7M330 229.4l1-.6M324 232.7l6-3.3M302.8 373l4-2.2M319 331.5l5.7-3.3M311.7 335.6l4.3-2.4M301.5 341.6l2-1.2 3.5-2M319.6 241v-.4l.4-.6v-.5l.3-.5.3-.6v-.2l.2-.4.5-1.3.2-.5.5-1.4.3-.8 2.8-7.4 2-4.6.2-.8 1-2.8 2.4-6.2v-.2M329.8 207l-8.7-5-8.6-5-3.2-2M330.8 228.8l2.3-1.3 2-1M333.2 294v-.2M335.3 226.3h.2l.4-.3M334.3 227l1-.7M335.2 226.3l.6-.4M307 344.3l-5.5 3.2M322 335.6l-8.5 5-1.8 1M330.7 330.6l-1 .5M333.5 228l-1.2.6M333.7 227.8h-.2M335.8 226.7l-2 1M336 226.6h-.2M336.4 226.3l-.5.3M337 303.6v-2.3M339.2 303.7v2.9M307 285l-5 3-.5.3M339.7 299.7v-.7M301.5 363.8l.3-.2 5.2-3M301.5 353.4l5.5-3.2M339 224.4h.2M338.6 227.5l.8.5" stroke-linecap="round" stroke-linejoin="round"/>
  <path fill="none" stroke="#0091EA" d="M327.2 221l8.6 5 .6.3 1 .5.3.2 1 .5M321.6 217.7l3 1.8M339.2 224.3l.3.4.5.7.2.3.5.6.4.7M330.6 212l5.8 8.2 2.8 4M328.4 234.4l-7.4 4.2-.7.4M332.8 231.8l-4.3 2.5M341 227l-1.6 1-6.6 3.8M342 223l1.3-.6h.3l.2-.2M343.6 229.3h.2M325.7 216.7l-2.5-1.4M339.5 224.7l-.5-.3M333.2 235l8.8-5 .3-.3M329 237.4l.4-.2 3.8-2.2M320 242.5l1.3-.7 6.8-4 .8-.3" stroke-linecap="round" stroke-linejoin="round"/>
  <path fill="none" stroke="#0091EA" d="M342 223h.4l1.4-.8h.3l6.4-1 4.3-.7 6 1 4.7.6.2.2 3.7 2 2.4 1 5.8 3 4.4 2.6 6.4 3.7 8 4.6 8.6 5 8.7 5 8.6 5 8.7 5 8.7 5 8.6 5 8.7 5 8.6 5 8.7 5 6.2 3.7 1 .6 8.8 5 1 .7 5 3.3M311.7 288.3l2.8-1.6 8.7-5 8.7-5 7.5-4.5.8-.4 4.4-2.5M301.4 294.2l3.5-2 2-1.2M331.3 207.8l-.3-.4M342 223.3v-.2M296.7 369.6L294 368M341.4 395.4l-8.6-5-8.7-5-8.6-5-8.6-5-4-2.3-1.8-1M301.7 300h-.2M307 297l-2.8 1.5M311.7 300l2.5-1.3 8.6-5 8.7-5 8.7-5 3-1.7 5.7-3.3.8-.5.8-.5 4.3-2.5M301.5 306l.8-.4 1-.6M317 303l-4 2.4M323 299.5l-2.6 1.5M330 295.5l-3.3 2M395 388.4l-.5.5-.6.2-1.4.7-8.7 5-8.7 5-2.2 1.2-5.3 3-1.3 1h-.4l-.4.3-1.3.8h-1.6M363.8 403.5v.4M362.8 406.4h1.4M319.4 307.5L317 309M331.7 300.4l-.8.5M337 297.5l-.6.2M348.8 290.5l-8.6 5-.5.3" stroke-linecap="round" stroke-linejoin="round"/>
  <path fill="none" stroke="#0091EA" d="M365.6 222.2h.4l7.4 3.8 5 2.6 7.6 4.3 3.3 2 8.7 5 8.6 5 8.7 5 7 4 8.8 5 4.3 2.4 8.7 5 8.7 5 8.6 5 7 4 8.8 5 4.4 2.6 8.6 5h.2l2 1.3 1 .6 1 .5 8.2 5.5 1.6 1 .5 1 .2.3 1.5 3.3 1 2.3.5 1.2 1 3.6-1 3.7-.5 1.4-1 2.2-1.8 4h-.2l-.4.4-1.3 1M323 311.3l-1.2.7M325.5 310h-.2M331 306.8l-.3.2M350 295.8l-8 4.6M355 298.8l8.7-5 5.7-3.3 1-.5.7-.5 4.4-2.5M333 311.5l8.8-5 3-2M326 315.6l4-2.4M357 341.8l4-2.3M395 381.7l1.2.7M395.6 364l-8.7-5-8.8-5-8.6-5-8.7-5-4-2.2-8.7-5M406.2 264.6h-.7M406.2 264h-.5M405.7 263.8h.4M405.7 264.4h.4M406 264.8h.7M406 264.2h.7M406.8 264.3h-.7M406.8 265h-.8M406.5 264.5H407.4M406.5 264l.2-.2h.7M406.5 265H407.4M407.4 265.3h-.8M407.4 264.6H406.4M407.4 264H406.4M407 265.5h.8M407 264.2h.8M407 264.8h.8M408 265h-1M408 264.3h-1M408 265.6h-.8M407.6 265h.9M407.6 265.8h.9M407.6 264.5h.9M407.6 264l.2-.2h.7M408.5 264.6h-.8M408.5 265.3h-.8M408.5 266H407.8M408.5 264h-.8M408 263.7h-.4M408 266H409M408 264.8H409M408 264.2H409M408 265.5H409M409 266.3h-.7M409 265.6h-.9M408.5 263.6h-.4M409 265h-.9M409 264.3h-.9M408.7 264.5h.7M408.7 264l.2-.2M408.7 265.8h.7M408.7 265h.7M408.7 266.4h.7M409.6 266.6h-.8M409.6 265.3H408.6M409.6 266h-.8M409 264h-.3M409.6 264.6H408.6M409.3 264.8H410.2M409.3 264.2h.2M409.3 266H410.2M409.3 266.8H410.2M409.3 265.5H410.2M410.2 267h-.4v-.2h-.4M409.6 264.3h-.3M410.2 265.6H409.2M410.2 265H409.2M410.2 266.3H409.2M409.8 267h.8M409.8 265.8h.8M409.8 265h.8M409.8 264.5h.4M409.8 266.4h.8M410.7 267.2h-.7M410.7 266H409.7M410.7 265.3H409.7M410.7 266.6H409.7M410.2 264.6h-.4M410.4 266h.7M410.4 267.4h.7M410.4 266.8h.7M410.4 265.5h.7M410.4 264.8h.2M411.3 267.6H410.6M411.3 266.3h-.8M411.3 267h-.2v-.2H410.3M411.3 265.6h-.8M410.7 265h-.3M411 265h.2M411 267.7H412M411 265.8H412M411 267H412M411 266.4H412M412 268h-.3l-.2-.2h-.4M412 266H411M411.3 265.2h-.2M412 267.2H411M412 266.6H411M411.5 266.8h.8M411.5 268h.8M411.5 267.4h.8M411.5 266h.8M411.5 265.5h.2M412.4 268.2h-.8M353.4 397.4l2.2-1.3.5-.2 8.7-5 8.7-5 1.7-1M412.4 267.6H411.4M412.4 267h-.2l-.2-.2h-.5M412.4 266.3H411.4M412 265.6h-.5M412 267h1M412 266.4h1M412 268.4h1M412 265.8h.4M412 267.7h1M413 268.5h-.8M413 267.2H412M413 266.6H412M413 268h-.2v-.2h-.7M412.4 266h-.3M412.6 266.8h.8M412.6 266h.4M412.6 268.7h.8M412.6 268h.8M412.6 267.4h.8M413.5 269v-.2H412.8M413.5 267h-.2l-.2-.2h-.4M413 266.2h-.4M413.5 268.2h-.8M413.5 267.6h-.8M413.2 266.4h.2M413.2 267.7h.8M413.2 267h.8M413.2 269h.8M413.2 268.4h.8M414 269.2H413.3M413.5 266.5h-.3M414 268l-.2-.2H413M414 267.2h-.8M414 268.5h-.8M413.8 268H414.8M413.8 269.4H414.8M413.8 266.8h.2M413.8 268.7H414.8M413.8 267.4H414.8M414.7 269.5H414M414 267h-.2M414.7 268.2h-.8M414.7 267.6h-.8M414.7 269l-.2-.2H413.8M414.3 269.7h.8M414.3 267.7h.8M414.3 269h.8M414.3 268.4h.8M414.3 267h.4M415.2 269.8h-.7M415.2 268.5H414.2M415.2 268h-.2v-.2h-.7M415.2 269.2H414.2M414.7 267.2h-.4M415 267.4h.2M415 269.4h.8M415 268.7h.8M415 270h.8M415 268h.8M415.8 270.2h-.8M415.2 267.5h-.2M415.8 268.2h-.8M415.8 269.5h-.8M415.8 269l-.2-.2H415M415.4 267.7h.4M415.4 269.7h.8M415.4 270.3h.8M415.4 268.4h.8M415.4 269h.8M416.3 270.5H415.6M416.3 269.8h-.8M416.3 268.5h-.8M415.8 267.8h-.4M416.3 269.2h-.8M416 269.4h.8M416 268.7h.8M416 270h.8M416 268h.2M416 270.6h.8M417 270.8H416M417 269l-.3-.2H416M417 270.2H416M416.3 268.2h-.2M417 269.5H416M416.6 268.4h.3M416.6 270.3H417.6M416.6 269.7h.8M416.6 269h.8M416.6 271h.8M417.5 271H417M417.5 269.8h-.8M417.5 269.2h-.8M417 268.5h-.4M417.5 270.5h-.8M417 271.3H418M417 270.6H418M417 268.7h.5M417 269.4H418M417 270H418M418 271.4h-.7M418 269.5H417M417.5 268.8h-.4M418 270.2H417M418 270.8H417M417.7 269h.2M417.7 271.6h.8M417.7 270.3h.8M417.7 269.7h.8M417.7 271h.8M418.6 270.5h-.8M418.2 269h-.2l-.2.2M418.6 271h-.8M418.6 269.8h-.8M418.6 271.8h-.8M418 271h.2M418 271.7h.2M418.2 271.3h.8M418.2 270.6h.8M418.2 272h.8M418.2 270h.8M418.2 269.4h.4M419 270.8h-.8M419 270.2h-.8M419 272H418.3M419 271.4h-.8M418.8 269.4H418M418.8 271.6H419.8M418.8 271H419.8M418.8 270.3H419.8M418.8 269.7h.2M418.8 272.3H419.8M419.7 271.8h-.8M419.7 272.4H419M419.7 271h-.8M419.7 270.5h-.8M419.4 269.8H418.7M419.4 270.6h.8M419.4 270h.3M419.4 272H420.4M419.4 272.6h.8M419.4 271.3h.8M420.3 272h-.7M420.3 270.8h-.7M420.3 271.4h-.7M420 270h-.5v.2M420.3 272.7H419.7M420 270.3h.3M420 272.3h.8M420 271.6h.7M420 271h.7M420 273h.3v-.2h.4M420.8 272.4h-.7M420.8 273h-.7M420.8 271h-.7M420.5 270.4h-.4M420.8 271.8h-.7M420.5 271.3h1M420.5 270.6h.3M420.5 273.2h1M420.5 272h1M420.5 272.6h.8M421.4 271.4H420.5M421 270.7h-.4M421.4 272h-.8M421.4 273.4H420.5M421.4 272.7H420.5M421 273.6h1M421 271h.4M421 272.3h1M421 271.6h1M421 273h.4v-.2H422M422 271.8h-.8M422 273h-.8M421.6 271h-.4M422 273.7h-.8M422 272.4h-.8M421.6 273.2H422.6M421.6 272H422.6M421.6 274h.2l.2-.2h.5M421.6 272.6H422.6M421.6 271.3h.4M422.5 272H421.6M422.5 273.4H421.6M422.5 272.7H421.6M422.2 271.4H421.6M422.5 274h-.7M422.2 271.6h.3M422.2 274.2h.7M422.2 273.6H423.2M422.2 273h.3v-.2h.4M422.2 272.3h.7M423 273.7h-.7M423 273h-.7M423 272.4h-.7M422.7 271.7h-.4M423 274.4H422.3M422.7 272.6h.8M422.7 272h.2M422.7 274.5h.8M422.7 273.2h.8M422.7 274h.2v-.2h.6M423.6 272.7H422.7M423.6 274.7h-.7M423.3 272h-.4M423.6 274H422.7M423.6 273.4H422.7M423.3 273.6h.8M423.3 275v-.2h.8M423.3 274.2h.8M423.3 273h.3v-.2h.5M423.3 272.3h.3M424.2 273h-.8M424 272.4h-.6M424.2 274.4h-.8M424.2 273.7h-.8M424.2 275h-.7M424 273.2h.8M424 272.6h.2M424 274.5h.8M424 274l.2-.2H425M424 275.2h.8M424.8 275.3h-.7M424.8 273.4h-.8M424.3 274.6h-.3M424.8 274h-.8M424.4 272.7h-.4M424.4 274.2H425.4M424.4 273h.4M424.4 275.5H425.4M424.4 275v-.2H425.4M424.8 274.7h-.3M424.4 273.6H425.4M424.8 275h-.3M425.3 273.7h-.7M425.3 275.7H424.7M425 273h-.5M425.3 274.4h-.7M425.3 275h-.2M425 273.2h.3M425 275.8H426M425 275.2H426M425 274.5H426M425 274l.3-.2H426M425.4 275.3h-.3M426 274.7H425M426 276h-.8M426 274H425M425.5 273.3h-.4M425.5 275.5h1M425.5 275v-.2h.8M425.5 274.2h.8M425.5 276.2h.8M426 275.3h-.4M425.5 273.6h.4M426 273.7h-.5M426.4 274.4h-1M426 275.6h-.5M426.4 275h-1M426 276.3h-.3M426.4 275.7h-.2M426 275.8h1M426 274h.2l.2-.2M426 275.2h1M426 274.5h1M426.4 274.6h-.2M426.4 274h-.2M426.5 276h-.3M426.4 275.3h-.2M427 276h-.2M426.7 275l.3-.2H427.6M426.7 275.5H427.7M426.7 274.2h.3M426.7 276.2h.7M427 275.3h-.2M427 274.7h-.2M427 275h-.2M427 274.3h-.2M427 275.6h-.2M427.2 275.2H428.2M427.2 274.5h.3M427.2 275.8H428.2M427.6 275.7h-.3M427.6 275h-.3M427.6 276h-.3M427.6 275.3h-.3M427.6 274.6h-.3M427.8 275l.3-.2M427.8 275.5H428.8M428 276h-.2M428 275.3h-.2M428 275.6h-.2M428 275h-.2M428.3 275.2h.4M428.3 275.8h.2M428.5 276V275.4l.2-.3M428.5 275.6h-.2M428.5 276h-.2M428.6 275.3h-.2M435.3 365.5h-.5M435.5 365.4h-.2M385.7 298l.7.4M375.4 292l.8.5M365.2 286l.8.6M355 280.2l.7.5M344.7 274.3l.8.4M311.7 255.3l1.3.7 8.6 5 8.7 5 5 2.8M307 250h-.4l-.2-.2-.2-.2-.5-.2M337.3 267.6l-8.6-5-8.7-5-5-2.8-3.3-2M347.6 273.5l-3-1.7M357.8 279.4l-3-1.6M368 285.4l-2.8-1.7M378.3 291.3l-3-1.7M388.6 297.2l-3-1.7M455 348.2l.6.3.6.4h.3M457 350.5v.2M459.7 324l2.7 1.5M467.5 319.5l2.7 1.5M477.3 328.6l4.3-2.5M393.7 377l.6-.5 7.8-4.5 8.8-5 8.6-5 8.7-5 3.7-2 2.8-1.7M377.5 386.2l3-1.6M355.4 399l3-1.8M334.3 411.2l5.3-3 .5-.4 8-4.5M280.2 442.4l5.3-3M490.7 334.3l-5 3-1.2.6-4 2-8.6 5-8.7 5-7.7 4.5-1.6 1-.5.2-2.6 1.5-2.7 1.6-8.7 5-4.6 2.6-1.2.7-.5.4-1.4.8-7.7 4.4-1.2.7-.2.2-8.6 5-4.4 2.5-3 1.7-2.5 1.4-.5.4-8 4.6-1.6 1-2.7 1.6-.4.2-8.6 5-8.7 5-4.5 2.6-4.6 2.7-.5.4-2.5 1.5-8.7 5-5 2.8-2.7 1.6-8.6 5-8.7 5-8.6 5-8.6 5-8.6 5-8.7 5-8.6 5-8.6 5-8.7 5-8.6 5-8.6 5-8.7 5-4 2.3-8.7 5-8.6 5-7 4-2.5 1.5-.6.3M490.6 321l4.2-2.5M502.5 326.5l-3 2.3M502 313.5" stroke-linecap="round" stroke-linejoin="round"/>
</svg>
