<?xml version="1.0" encoding="utf-8"?>
<!-- Generator: Adobe Illustrator 15.1.0, SVG Export Plug-In . SVG Version: 6.00 Build 0)  -->
<!DOCTYPE svg PUBLIC "-//W3C//DTD SVG 1.1//EN" "http://www.w3.org/Graphics/SVG/1.1/DTD/svg11.dtd">
<svg version="1.1" id="Layer_1" xmlns="http://www.w3.org/2000/svg" xmlns:xlink="http://www.w3.org/1999/xlink" x="0px" y="0px"
	 width="56.689px" height="56.689px" viewBox="0 0 56.689 56.689" enable-background="new 0 0 56.689 56.689" xml:space="preserve">
<path d="M16.789,18.712h23.04v1.659h-23.04V18.712z M16.789,16.126h23.04v-1.659h-23.04V16.126z M31.461,8.473H16.789v1.659h14.672
	V8.473z M54.095,30.008v20c0,2.205-1.795,4-4,4h-43.5c-2.206,0-4-1.795-4-4v-20c0-2.206,1.794-4,4-4h1.657v-5.625
	c0-2.045,1.548-3.718,3.531-3.953V6.68c0-2.204,1.793-3.997,3.996-3.997h25.132c2.205,0,3.998,1.793,3.998,3.997v9.749
	c1.981,0.236,3.53,1.908,3.53,3.953v5.625h1.656C52.301,26.007,54.096,27.801,54.095,30.008z M13.783,26.007h29.125v-9.625V6.68
	c0-1.101-0.896-1.997-1.998-1.997H15.78c-1.101,0-1.996,0.896-1.996,1.997v9.702V26.007z M52.096,50.008L52.096,50.008l-0.001-20
	c0-1.104-0.898-2-2-2h-3.656v-7.625c0-0.941-0.653-1.733-1.53-1.944v9.569H11.783v-9.569c-0.878,0.211-1.531,1.003-1.531,1.944
	v7.625H6.596c-1.103,0-2,0.896-2,2v20c0,1.102,0.897,2,2,2h43.5C51.198,52.008,52.096,51.11,52.096,50.008z M45.377,31.955
	c-1.203,0-2.178,0.975-2.178,2.178s0.975,2.178,2.178,2.178s2.178-0.975,2.178-2.178S46.58,31.955,45.377,31.955z M45.805,43.424
	H10.886c-0.966,0-1.75,0.783-1.75,1.75s0.784,1.75,1.75,1.75h34.918c0.967,0,1.75-0.783,1.75-1.75S46.771,43.424,45.805,43.424z"/>
</svg>
