<?xml version="1.0" encoding="utf-8"?>
<!-- Generator: Adobe Illustrator 16.0.0, SVG Export Plug-In . SVG Version: 6.00 Build 0)  -->
<!DOCTYPE svg PUBLIC "-//W3C//DTD SVG 1.1//EN" "http://www.w3.org/Graphics/SVG/1.1/DTD/svg11.dtd">
<svg version="1.1" id="Layer_1" xmlns="http://www.w3.org/2000/svg" xmlns:xlink="http://www.w3.org/1999/xlink" x="0px" y="0px"
	 width="256px" height="256px" viewBox="0 0 256 256" enable-background="new 0 0 256 256" xml:space="preserve">
<g>
	<polygon fill="#CE3824" points="208.063,117.347 58.161,32.206 58.161,154.455 62.232,160.521 194.387,247.003 208.063,239.596 	
		"/>
	<polygon fill="#E84B30" points="194.119,124.754 60.009,32.206 47.7,39.614 47.7,161.866 194.119,247.003 	"/>
	<polygon fill="#E84B30" points="133.398,15.043 59.667,32.206 207.13,117.347 	"/>
	<polygon fill="#CE3824" points="46.833,39.614 120.567,143.311 194.299,124.754 207.13,117.347 59.667,32.206 	"/>
	<g>
		<polygon fill="#D3DADD" points="173.557,72.221 181.945,67.376 181.585,168.08 173.192,172.923 		"/>
		<polygon fill="#EDF2F4" points="173.557,72.221 181.945,67.376 80.773,8.963 72.381,13.806 		"/>
		<g enable-background="new    ">
			<g>
				<path fill="#4494C6" d="M148.562,128.238c1.937,1.117,3.521,3.862,3.517,6.084c-0.011,2.227-1.602,3.102-3.538,1.984
					s-3.523-3.829-3.517-6.056C145.032,128.028,146.627,127.119,148.562,128.238z"/>
			</g>
			<g>
				<path fill="#E8EEF2" d="M148.574,123.255c4.336,2.502,7.849,8.591,7.837,13.57c-0.011,4.949-3.553,6.963-7.889,4.46
					c-4.332-2.502-7.819-8.572-7.805-13.518C140.732,122.785,144.242,120.753,148.574,123.255z M148.541,136.307
					c1.937,1.117,3.527,0.242,3.538-1.984c0.004-2.223-1.58-4.968-3.517-6.084c-1.936-1.119-3.53-0.209-3.538,2.013
					C145.018,132.478,146.604,135.189,148.541,136.307"/>
			</g>
			<g>
				<path fill="#4494C6" d="M148.596,116.88c7.427,4.288,13.39,14.615,13.364,23.149c-0.025,8.502-6.026,11.952-13.452,7.668
					c-7.4-4.273-13.39-14.649-13.367-23.152C135.166,116.013,141.195,112.608,148.596,116.88z M148.522,141.285
					c4.336,2.503,7.878,0.489,7.889-4.46c0.012-4.979-3.501-11.068-7.837-13.57c-4.332-2.502-7.842-0.47-7.856,4.512
					C140.703,132.713,144.19,138.783,148.522,141.285"/>
			</g>
		</g>
		<g>
			<polygon fill="#5C7281" points="126.994,99.086 126.972,106.79 90.444,85.7 90.466,77.997 			"/>
		</g>
		<g enable-background="new    ">
			<g>
				<polygon fill="#EA5D46" points="124.341,43.806 132.494,57.991 121.398,51.585 113.244,37.398 				"/>
			</g>
			<g>
				<polygon fill="#5C7281" points="162.11,86.5 162.089,94.205 90.536,52.893 90.558,45.188 				"/>
			</g>
		</g>
		<g>
			<polygon fill="#4494C6" points="146.509,56.603 154.659,70.788 143.562,64.381 135.412,50.196 			"/>
		</g>
		<g>
			<polygon fill="#5C7281" points="162.066,102.904 162.045,110.607 90.488,69.296 90.51,61.594 			"/>
		</g>
		<g>
			<polygon fill="#EA5D46" points="173.557,72.221 173.531,81.684 166.505,77.629 158.355,63.442 			"/>
		</g>
		<g>
			<polygon fill="#4494C6" points="101.398,30.558 109.548,44.743 98.451,38.337 90.297,24.152 			"/>
		</g>
		<g>
			<polygon fill="#EA5D46" points="79.23,17.762 87.38,31.945 72.355,23.27 72.381,13.806 			"/>
		</g>
		<polyline fill="#F46151" points="72.381,13.806 79.23,17.762 87.622,12.919 80.773,8.963 		"/>
		<polyline fill="#54AFDD" points="90.297,24.152 101.398,30.558 109.787,25.715 98.69,19.309 		"/>
		<polyline fill="#F46151" points="113.244,37.398 124.341,43.806 132.729,38.963 121.633,32.555 		"/>
		<polyline fill="#54AFDD" points="135.412,50.196 146.509,56.603 154.894,51.76 143.797,45.353 		"/>
		<polyline fill="#F46151" points="158.355,63.442 173.557,72.221 181.945,67.376 166.748,58.6 		"/>
		<g>
			<path fill="#E8EEF2" d="M166.505,77.629l7.026,4.053l-0.339,91.24L72.021,114.51l0.334-91.24l15.025,8.675l-8.15-14.184
				l11.067,6.39l8.153,14.185l11.097,6.406l-8.15-14.187l11.846,6.842l8.154,14.187l11.096,6.406l-8.153-14.185l11.071,6.39
				l8.15,14.185l11.097,6.406l-8.15-14.185l11.847,6.84L166.505,77.629z M148.508,147.697c7.426,4.284,13.427,0.834,13.452-7.668
				c0.025-8.534-5.938-18.861-13.364-23.149c-7.4-4.271-13.43-0.867-13.455,7.665C135.118,133.048,141.107,143.424,148.508,147.697
				 M162.089,94.205l0.021-7.706L90.558,45.188l-0.022,7.705L162.089,94.205 M162.045,110.607l0.021-7.703L90.51,61.594
				l-0.022,7.702L162.045,110.607 M126.972,106.79l0.022-7.704L90.466,77.997L90.444,85.7L126.972,106.79"/>
		</g>
	</g>
	<polygon fill="#EA5D46" points="46.833,39.614 120.567,143.311 46.833,161.866 	"/>
	<polygon fill="#EA5D46" points="194.119,124.754 194.119,247.003 120.387,143.311 	"/>
	<polygon fill="#B52718" points="194.119,124.754 208.063,117.347 208.063,239.596 194.119,247.003 	"/>
</g>
</svg>
