<?xml version="1.0" encoding="utf-8"?>
<!-- Generator: Adobe Illustrator 16.0.0, SVG Export Plug-In . SVG Version: 6.00 Build 0)  -->
<!DOCTYPE svg PUBLIC "-//W3C//DTD SVG 1.1//EN" "http://www.w3.org/Graphics/SVG/1.1/DTD/svg11.dtd">
<svg version="1.1" id="Layer_1" xmlns="http://www.w3.org/2000/svg" xmlns:xlink="http://www.w3.org/1999/xlink" x="0px" y="0px"
	 width="256px" height="256px" viewBox="0 0 256 256" enable-background="new 0 0 256 256" xml:space="preserve">
<g>
	<path fill="#B8C2C4" d="M203.951,93.577L60.584,10.56c-1.951-1.127-3.674-1.233-4.95-0.491l-8.512,5.062
		c-1.384,0.661-2.074,2.242-2.074,4.584v101.552l157.531,91.069l0,0L44.769,121.282l-0.106,21.053
		c-0.011,4.455,3.093,9.871,6.97,12.11l143.685,82.957c2.18,1.259,4.099,1.202,5.392,0.156c-0.119,0.094-0.22,0.22-0.348,0.295
		l8.538-5.063c1.259-0.732,1.872-2.288,1.872-4.499V105.684C210.771,101.231,207.828,95.815,203.951,93.577z M49.313,14.809
		c-0.075-0.01-0.147-0.016-0.219-0.025C49.169,14.793,49.238,14.796,49.313,14.809z M48.294,14.774
		c-0.143,0.013-0.286,0.019-0.424,0.047C48.008,14.793,48.15,14.787,48.294,14.774z M196.544,99.425
		c2.742,2.098,4.925,5.692,5.61,9.143C201.466,105.12,199.28,101.526,196.544,99.425z"/>
	<g>
		<g enable-background="new    ">
			<path fill="#9BA7AA" d="M193.087,202.746L148.161,236.2l-0.009,8.156l44.926-33.454c1.669-1.234,2.489-2.712,2.495-4.184
				l0.013-8.156C195.579,200.034,194.759,201.509,193.087,202.746z"/>
			<g>
				<path fill="#D1D1D1" d="M193.074,202.739l-37.58,28.013l-7.323,5.451c-4.384,3.234-12.643,3.528-17.696,0.617l-49.423-28.523
					c-5.052-2.912-4.569-7.724,1.018-10.263l9.38-4.249l48.221-21.866c4.706-2.139,11.413-1.897,15.64,0.535l36.775,21.222
					C196.337,196.137,196.763,200.013,193.074,202.739z"/>
			</g>
			<path fill="#F2F2F2" d="M130.469,236.82l-49.413-28.529c-2.353-1.359-3.51-3.125-3.503-4.885l-0.011,8.159
				c-0.004,1.757,1.149,3.522,3.505,4.885l49.411,28.525c5.052,2.918,13.323,2.627,17.694-0.619l0.009-8.156
				C143.794,239.443,135.521,239.738,130.469,236.82z"/>
		</g>
	</g>
	<path fill="#9BA7AA" d="M193.074,202.739l-37.58,28.013l-64.045-36.967l48.221-21.866c4.706-2.139,11.413-1.897,15.64,0.535
		l36.775,21.222C196.337,196.137,196.763,200.013,193.074,202.739z"/>
	<g>
		<g enable-background="new    ">
			<g>
				<path fill="#F2F2F2" d="M202.401,212.317l-0.06,21.052c-0.012,4.456-3.162,6.25-7.038,4.011L51.61,154.423
					c-3.876-2.235-7.004-7.655-6.992-12.107l0.06-21.055L202.401,212.317z"/>
			</g>
			<g>
				<path fill="#2E3333" d="M195.41,98.614l-57.396-33.15l-24.313-14.021L51.75,15.672c-1.484-0.858-2.87-1.124-3.992-0.858
					c-0.166,0.032-0.331,0.066-0.495,0.166c-0.133,0-0.053,0.066-0.119,0.132c-1.385,0.657-2.096,2.242-2.096,4.583v101.549
					l157.531,91.073l-0.084-101.596C202.496,106.27,199.274,100.859,195.41,98.614z M193.369,196.096l0.263-85.935"/>
			</g>
			<path fill="#9BA7AA" d="M210.771,105.665l-8.019,5.062V233.15c0,2.214-0.961,3.951-2.22,4.681l8.454-5.062
				c1.259-0.729,1.784-2.286,1.784-4.496V105.665z"/>
			<path fill="#D1D1D1" d="M204.121,93.558L60.669,10.538c-1.949-1.124-3.716-1.23-4.991-0.489l-8.71,5.063
				c1.274-0.742,3.084-0.417,5.034,0.71L195.41,98.621c3.876,2.235,7.007,7.655,6.991,12.107l8.714-5.062
				C211.128,101.213,207.997,95.793,204.121,93.558z"/>
		</g>
	</g>
	<g>
		<polygon fill="#9FDCFF" points="188.71,110.167 188.71,192.06 161.665,176.083 144.583,166.032 128.358,156.567 72.505,124.388 
			56.419,115.177 56.419,33.234 124.509,72.465 179.712,104.645 		"/>
	</g>
	<g>
		<polygon fill="#88BAEF" points="180.438,104.645 128.517,156.567 72.776,124.388 124.701,72.465 		"/>
		<polygon fill="#88BAEF" points="188.71,120.928 188.71,148.402 161.665,176.083 143.944,166.032 		"/>
	</g>
	<g>
		<path fill="#B8C2C4" d="M122.615,175.319c3.657,2.109,6.611,7.229,6.6,11.437c-0.013,4.205-2.987,5.899-6.644,3.789
			c-3.663-2.117-6.619-7.236-6.606-11.438C115.976,174.899,118.951,173.202,122.615,175.319z"/>
	</g>
</g>
</svg>
