<?xml version="1.0" encoding="utf-8"?>
<!-- Generator: Adobe Illustrator 16.0.0, SVG Export Plug-In . SVG Version: 6.00 Build 0)  -->
<!DOCTYPE svg PUBLIC "-//W3C//DTD SVG 1.1//EN" "http://www.w3.org/Graphics/SVG/1.1/DTD/svg11.dtd">
<svg version="1.1" id="Layer_1" xmlns="http://www.w3.org/2000/svg" xmlns:xlink="http://www.w3.org/1999/xlink" x="0px" y="0px"
	 width="256px" height="256px" viewBox="0 0 256 256" enable-background="new 0 0 256 256" xml:space="preserve">
<g>
	<g>
		<path fill="#51535F" d="M128.01,127.442"/>
	</g>
	<g>
		
			<ellipse transform="matrix(-0.8574 -0.5147 0.5147 -0.8574 96.854 439.2576)" fill="#565864" cx="109.287" cy="206.209" rx="14.969" ry="26.571"/>
		<polygon fill="#A8A8A8" points="74.909,216.026 204.286,141.331 165.979,119.215 36.602,193.91 		"/>
		<polygon fill="#565864" points="112.757,219.673 95.626,209.832 95.626,229.515 112.757,239.359 		"/>
		<path fill="#565864" d="M178.577,146.374c-7.551,12.582-7.93,26.23-0.84,30.487c7.09,4.255,18.958-2.497,26.509-15.076
			c7.557-12.585,7.929-26.23,0.843-30.487C198.002,127.043,186.134,133.795,178.577,146.374z"/>
		<polygon fill="#565864" points="223.521,141.392 206.477,131.55 179.122,177.111 196.173,186.955 		"/>
		<polygon fill="#C6C6C6" points="75.027,207.103 204.406,132.404 166.096,110.288 36.719,184.983 		"/>
		<polygon fill="#D6D6D6" points="178.555,100.762 242.534,63.824 157.874,14.943 93.893,53.128 		"/>
		<polygon fill="#C6C6C6" points="178.835,100.762 93.178,53.128 93.178,109.178 178.835,158.059 		"/>
		<polygon fill="#DEDEDE" points="178.835,100.762 242.471,63.824 242.471,121.12 178.835,158.059 		"/>
		<polygon fill="#6698DE" points="178.835,121.729 93.178,74.095 93.178,91.843 178.835,140.724 		"/>
		<polygon fill="#A7CAEC" points="178.835,121.729 242.471,84.79 242.471,103.258 178.835,140.199 		"/>
		<polygon fill="#79A8E2" points="36.207,167.476 64.222,151.236 41.498,138.115 13.481,154.354 		"/>
		<polygon fill="#6698DE" points="98.073,220.447 12.415,171.566 12.415,154.354 98.073,203.235 		"/>
		<polygon fill="#FFFFFF" points="76.046,216.096 36.887,193.91 36.887,160.344 76.046,182.529 		"/>
		<polygon fill="#BBBBBB" points="71.151,207.708 41.783,191.178 41.783,168.729 71.151,185.261 		"/>
		<polygon fill="#999999" points="58.915,201.002 54.02,197.883 54.02,175.437 58.915,178.556 		"/>
		<polygon fill="#999999" points="71.151,207.708 63.81,204.589 63.81,182.14 71.151,185.261 		"/>
		<polygon fill="#999999" points="46.678,194.297 41.783,191.178 41.783,168.729 46.678,171.848 		"/>
		<polygon fill="#DEDEDE" points="98.073,220.447 12.415,171.566 12.415,180.562 98.073,229.44 		"/>
		<polygon fill="#DEDEDE" points="154.362,181.678 139.679,173.407 139.679,189.231 154.362,197.502 		"/>
		<polygon fill="#FFFFFF" points="93.178,212.75 80.941,205.561 80.941,197.986 93.178,205.179 		"/>
		<polygon fill="#FFFFFF" points="31.995,177.105 19.755,169.91 19.755,162.339 31.995,169.531 		"/>
		<path fill="#74757F" d="M197.013,156.471c-7.554,12.579-7.929,26.23-0.84,30.484c7.087,4.255,18.955-2.494,26.506-15.076
			c7.557-12.582,7.933-26.23,0.843-30.487C216.436,137.138,204.567,143.889,197.013,156.471z"/>
		<path fill="#E0E8E7" d="M205.653,161.656c-2.468,4.111-2.592,8.571-0.278,9.962c2.316,1.391,6.198-0.813,8.664-4.925
			c2.471-4.114,2.591-8.574,0.277-9.965C212,155.338,208.122,157.546,205.653,161.656z"/>
		<polyline fill="#79A8E2" points="36.602,158.583 41.563,131.086 126.225,179.964 75.027,182.942 36.602,160.581 		"/>
		<polygon fill="#A8A8A8" points="154.362,181.678 178.835,167.158 178.835,182.982 154.362,197.502 		"/>
		<polygon fill="#79A8E2" points="126.225,187.024 98.144,203.235 75.027,190.114 116.113,181.185 		"/>
		<polygon fill="#A7CAEC" points="132.337,209.184 98.073,229.44 98.073,203.235 132.337,182.977 		"/>
		<polygon fill="#DEDEDE" points="153.582,181.678 178.729,167.158 164.911,158.888 139.762,173.407 		"/>
		<g>
			<path fill="#7A738B" d="M142.124,112.489v56.291h0.278h0.138c0,2.448,4.95,6.144,10.977,6.144
				c6.02-0.003,10.768-3.695,10.771-6.144h-0.135v-56.291H142.124z"/>
			<path fill="#655F77" d="M153.585,117.862c6.021,0,10.905-2.751,10.905-6.144c-0.003-3.393-4.885-6.144-10.908-6.144
				c-6.022,0.001-10.904,2.752-10.904,6.145C142.68,115.112,147.56,117.863,153.585,117.862z"/>
			<path fill="#584F5E" d="M147.021,83.121v26.921h0.49h0.243c0,2.447,2.623,3.146,5.705,3.145c3.085,0,5.69-0.698,5.693-3.145
				h0.104V83.121H147.021z"/>
			<ellipse fill="#4D4454" cx="153.583" cy="82.033" rx="5.583" ry="3.145"/>
		</g>
		<g>
			<path fill="#7A738B" d="M80.941,65.99v58.738h0.5h0.249c0.001,2.447,5.01,6.144,11.031,6.144
				c6.021-0.002,10.574-3.697,10.575-6.144h-0.33V65.99H80.941z"/>
			<ellipse fill="#655F77" cx="92.847" cy="66.834" rx="10.905" ry="6.144"/>
			<path fill="#584F5E" d="M88.283,36.622V65.99h-0.51h-0.254c0,2.447,2.373,3.145,5.456,3.145s5.339-0.698,5.341-3.145h-0.242
				V36.622H88.283z"/>
			<ellipse fill="#4D4454" cx="92.847" cy="37.148" rx="5.583" ry="3.146"/>
		</g>
		<polygon fill="#A7CAEC" points="127.44,179.964 137.222,144.195 154.362,134.216 154.362,197.502 127.44,213.229 		"/>
		<polygon fill="#74757F" points="98.073,220.447 154.362,188.506 154.362,197.502 98.073,229.44 		"/>
		<polygon fill="#A7CAEC" points="76.046,190.114 76.046,182.942 127.44,179.852 127.44,187.024 		"/>
		<path fill="#DEDEDE" d="M126.225,179.964"/>
		<path fill="#74757F" d="M113.03,208.181c-7.554,12.579-7.931,26.23-0.843,30.484c7.089,4.255,18.956-2.497,26.508-15.079
			c7.554-12.579,7.93-26.23,0.843-30.484C132.452,188.848,120.582,195.596,113.03,208.181z"/>
		
			<ellipse transform="matrix(-0.8574 -0.5146 0.5146 -0.8574 122.6858 465.7576)" fill="#E0E8E7" cx="125.864" cy="215.883" rx="4.891" ry="8.684"/>
		<polyline fill="#79A8E2" points="68.922,85.337 153.582,134.216 136.225,144.195 51.563,95.318 		"/>
		<polygon fill="#6698DE" points="126.225,179.964 41.563,131.086 51.563,95.318 136.225,144.195 		"/>
		<polygon fill="#51535F" points="88.586,125.513 82.747,146.42 72.562,140.534 67.28,137.504 66.165,136.856 55.423,130.661 
			51.365,128.322 57.205,107.415 61.396,109.845 72.16,116.041 73.275,116.686 78.534,119.719 		"/>
		<polygon fill="#51535F" points="120.261,168.112 88.893,150.003 94.738,129.097 126.106,147.205 		"/>
		<polygon fill="#51535F" points="134.785,169.749 140.071,149.771 149.469,144.195 149.469,162.766 134.785,171.55 		"/>
	</g>
</g>
</svg>
